<svg width="35" height="35" viewBox="0 0 35 35" fill="none" xmlns="http://www.w3.org/2000/svg">
<g id="csgo">
<path id="Union" fill-rule="evenodd" clip-rule="evenodd" d="M21.3788 6.50066H31.991C31.991 5.03077 30.7998 3.82812 29.3372 3.82812H21.1227C19.6631 3.82812 18.4689 5.02766 18.4689 6.50066V8.66665C18.4689 10.1365 19.66 11.3392 21.1227 11.3392H29.3588V13.5052H18.472C18.472 14.9751 19.6631 16.1777 21.1258 16.1777H29.6149C31.0745 16.1777 32.2687 14.9782 32.2687 13.5052V11.3392C32.2687 9.8693 31.0776 8.66665 29.6149 8.66665H21.3788V6.50066ZM16.4477 21.5849H5.43138V28.5242H13.9421V25.9884H9.5386C8.42153 25.9884 7.50813 25.0685 7.50813 23.9436H16.4508V28.5242C16.4508 29.9817 15.269 31.1719 13.8217 31.1719H5.36349C3.91624 31.1719 2.73438 29.9817 2.73438 28.5242V21.5849C2.73438 20.1275 3.91624 18.9372 5.36349 18.9372H13.8186C15.2659 18.9372 16.4477 20.1275 16.4477 21.5849ZM21.6381 18.9404H29.6396C31.0869 18.9404 32.2687 20.1306 32.2687 21.5881V28.5273C32.2687 29.9848 31.0869 31.175 29.6396 31.175H21.6381C20.1908 31.175 19.009 29.9848 19.009 28.5273V21.5881C19.009 20.1306 20.1908 18.9404 21.6381 18.9404ZM21.6782 28.5273H29.5964V21.5881H21.6782V28.5273ZM16.1145 6.50066H6.09483V13.5021H16.1176C16.1176 14.9751 14.9233 16.1746 13.4638 16.1746H5.38818C3.9255 16.1746 2.73438 14.972 2.73438 13.5021V6.50066C2.73438 5.02766 3.9255 3.82812 5.38818 3.82812H13.4607C14.9233 3.82812 16.1145 5.03077 16.1145 6.50066Z" fill="white"/>
</g>
</svg>
