<svg width="35" height="35" viewBox="0 0 35 35" fill="none" xmlns="http://www.w3.org/2000/svg">
<g id="dota2">
<path id="Vector" fill-rule="evenodd" clip-rule="evenodd" d="M9.04775 20.1584C9.31587 20.3246 9.48861 20.4884 9.74772 20.6961L11.8489 22.6306C12.2873 23.0452 13.4092 24.1701 13.8407 24.6688C14.135 25.009 14.2631 25.0451 14.4797 25.3804C14.4003 25.4101 13.4187 25.6336 12.8476 25.8275C11.6606 26.2339 10.5762 26.8842 9.54142 26.5355C9.38628 26.4834 8.68181 25.8153 8.35843 25.5893C8.16727 25.4556 7.98511 25.3292 7.7653 25.1768C7.13533 24.7395 6.95481 25.0407 7.7915 23.1041C8.01049 22.5977 8.19551 22.1417 8.4055 21.6455C8.58766 21.2122 8.83817 20.5111 9.04939 20.1567L9.04775 20.1584ZM24.1441 8.46982C24.5764 8.61897 25.6243 9.21315 25.8809 9.533C26.0975 9.80246 26.0349 9.82725 25.9546 10.215L25.5285 13.5261C24.9382 13.5472 25.1089 13.4777 24.743 13.2338C24.129 12.825 22.0238 11.2806 21.3475 10.7392L20.0475 9.70207C20.1433 9.61307 20.0143 9.66143 20.2309 9.60331L22.1547 9.17292C23.1572 8.92338 23.3128 8.85794 24.1433 8.46982H24.1441ZM6.88973 9.13634C7.33058 8.89046 7.56554 9.077 8.30931 8.54216C8.50866 8.39869 8.96712 8.41292 9.24587 8.45112C9.53446 8.49176 10.1988 9.04043 10.5038 9.22616C10.6798 9.33386 11.4731 9.93495 11.6024 10.143L11.9942 10.771C12.5337 10.7974 12.4391 10.7661 13.1198 11.2611L19.6381 15.5329C21.0397 16.5002 22.675 17.4882 24.0848 18.4624L28.102 21.072C27.9862 21.3195 27.8503 22.1738 27.7745 22.5152C27.4266 24.0836 26.989 24.7476 26.2805 26.2542C25.2624 26.2949 24.4589 26.2863 23.4642 26.2705C23.1421 26.2652 23.2215 26.3323 23.0455 26.1628C22.463 25.6023 21.4036 24.3725 20.8146 23.8056C20.6099 23.6097 20.4282 23.426 20.2268 23.2126C18.5984 21.4898 19.3692 22.0088 19.0507 21.58L15.774 18.5047C15.0216 17.7784 14.3442 16.9964 13.5664 16.1787C13.3667 15.9686 13.2664 15.7703 13.058 15.5797L13.0003 15.5281C12.9695 15.5 12.9408 15.4697 12.9144 15.4374L11.9626 14.3633C11.8632 14.2752 11.7714 14.1791 11.688 14.0759L10.8321 13.1989C10.6438 13.003 10.4968 12.8002 10.3175 12.5893L9.49884 11.7277C9.37604 11.6057 9.28885 11.5683 9.16892 11.4432C8.78128 11.0428 8.45381 10.6559 8.06084 10.256C7.74606 9.93454 6.98019 9.31476 6.88973 9.13634ZM10.8194 4.33168L4.09436 4.46864C3.73169 5.79762 4.09436 5.125 4.09436 6.51251V9.02458C4.03951 9.75003 3.84876 10.1219 3.84876 11.09C3.84876 11.4151 3.7759 12.1658 3.93431 12.4218C4.2143 12.8746 4.20734 13.2582 4.32523 13.913C4.43002 14.4941 4.54422 14.4332 4.2802 14.8717L4.1574 15.9824L4.73047 16.5404L4.73456 17.5159C4.39277 17.8272 4.7755 17.6057 4.0522 18.1234L4.11483 21.0712L4.82708 21.5845L4.67808 24.0966C3.92653 24.6314 4.08781 25.2796 4.11196 25.9454L4.20365 28.4509L4.03992 29.7348C5.72352 30.1554 5.3543 30.025 7.27819 30.025C8.97858 30.025 8.75917 30.042 10.4395 29.8392L10.4829 30.1237C10.7436 30.1071 11.0126 30.0928 11.2692 30.068C11.9843 29.999 11.6986 29.9173 11.945 29.8287C12.1231 29.7645 14.0392 30.2062 14.3507 30.2729C14.5226 30.0819 14.435 30.1591 14.6749 30.0051C14.8043 30.2769 15.3585 30.8992 15.5845 31.1719L16.2803 30.5253L17.4944 30.9931L17.8501 30.696C17.9885 30.8585 18.0732 31.0617 18.3209 31.0955C18.6811 31.1422 18.74 30.5497 19.5354 30.5346L24.147 30.3818C24.2063 30.3249 24.2415 30.2916 24.305 30.2298L24.5408 30.0392C24.8437 30.2205 24.9726 30.3948 25.3885 30.3676C26.6603 30.2839 25.9947 30.6732 27.6362 30.5858C27.919 30.5708 27.849 30.5017 28.0983 30.4143L28.6305 30.333C28.5146 30.0246 28.4405 30.068 28.2101 29.8376L31.1311 30.4241C31.0902 27.0102 31.0996 22.8444 31.143 19.3317L30.3579 19.3902C30.3861 19.1622 30.7263 19.248 30.7553 18.7896C30.7893 18.2116 30.7832 16.2336 30.6984 15.8109C30.655 15.5947 30.1008 14.9648 29.953 14.7689C30.129 14.293 30.1466 14.3247 30.4729 13.9369C30.4455 13.6817 30.3853 13.6118 30.2748 13.3228L31.1311 13.0444C31.1405 12.5567 31.1958 10.5938 31.1639 9.97356L30.8151 6.62428L31.0803 5.78665L31.0902 4.92545C30.3534 4.50318 30.4487 4.45645 29.9354 4.4597C29.4745 4.46295 28.854 4.43856 28.4119 4.33777C27.8449 4.20894 27.9972 4.11749 27.3754 4.7511L27.0934 4.14147C26.2055 4.07604 23.3594 3.82812 22.6824 3.82812C21.817 3.82812 21.9423 3.89234 21.65 4.86815L20.4065 4.99617L20.2427 4.46254L19.1175 4.44994L19.2366 4.31948C19.4568 4.11262 19.3794 4.1939 19.5518 3.82812H15.0253C14.8755 4.10286 14.6021 4.31176 14.2795 4.41824C13.8292 4.56659 14.0519 4.32721 13.767 4.58081C13.5537 4.77061 13.5169 4.75882 13.1808 4.75232C12.7347 4.74338 12.277 4.72915 11.83 4.71168C11.6254 4.70314 11.3982 4.72346 11.2005 4.67713C10.8959 4.60601 10.9843 4.52757 10.8181 4.33208L10.8194 4.33168Z" fill="white"/>
</g>
</svg>
