<svg width="35" height="35" viewBox="0 0 35 35" fill="none" xmlns="http://www.w3.org/2000/svg">
<g id="overwatch">
<path id="Union" fill-rule="evenodd" clip-rule="evenodd" d="M24.4314 9.53112C22.5115 7.86246 20.0546 6.93452 17.5082 6.93452C14.9619 6.93452 12.4969 7.86246 10.5769 9.53112L7.6238 6.54381C13.2372 1.46456 21.7955 1.46456 27.4171 6.54381L24.4314 9.53112ZM28.3078 7.42712L28.312 7.4229H28.3038C28.3051 7.42431 28.3064 7.42571 28.3078 7.42712ZM25.3263 10.4102L28.3078 7.42712C33.5837 13.1007 33.5823 21.8806 28.3038 27.5527C22.7474 33.5273 13.408 33.861 7.4367 28.3015C1.47351 22.742 1.13996 13.3975 6.69639 7.4229L9.68205 10.4265C6.66385 13.7882 6.11065 18.6884 8.29905 22.6362L14.2134 16.9383L16.8818 10.4916V20.1699L11.0244 25.8107C14.8317 28.7818 20.1766 28.7818 23.984 25.8107L18.1265 20.1699V10.4916L20.7949 16.9221L26.7093 22.6199C28.8977 18.6721 28.3445 13.772 25.3263 10.4102Z" fill="white"/>
</g>
</svg>
