<svg width="35" height="35" viewBox="0 0 35 35" fill="none" xmlns="http://www.w3.org/2000/svg">
<g id="pubg" clip-path="url(#clip0_447_666)">
<path id="Union" fill-rule="evenodd" clip-rule="evenodd" d="M4.74057 16.5516C4.90843 16.5516 5.04528 16.415 5.04528 16.2476V11.0903C5.04528 10.9228 4.90843 10.7863 4.74057 10.7863H3.93775C3.76988 10.7863 3.63304 10.9228 3.63304 11.0903V16.2476C3.63304 16.415 3.76988 16.5516 3.93775 16.5516H4.74057ZM6.92644 8.20312C7.53039 8.20312 8.01938 8.691 8.01938 9.29356L8.02303 9.29538C8.02303 9.29538 8.02668 17.2415 8.02668 17.7458C8.00296 18.1736 7.9099 18.6232 7.576 18.9126C7.11279 19.3157 6.50961 19.3024 5.94877 19.29L5.94874 19.29L5.94851 19.29C5.85331 19.2879 5.75933 19.2858 5.66747 19.2858H3.78995C3.70237 19.2858 3.63304 19.3568 3.63304 19.4424V26.0177C3.63304 26.4474 3.28271 26.7969 2.85211 26.7969H1.4271C0.996489 26.7969 0.646166 26.4474 0.646166 26.0177V19.5917C0.646166 19.4224 0.511145 19.2858 0.341457 19.2858H0.308615C0.140751 19.2858 0.00390625 19.1493 0.00390625 18.9818V16.8574C0.00390625 16.6881 0.140751 16.5516 0.308615 16.5516H0.341457C0.509321 16.5516 0.646166 16.415 0.646166 16.2476V8.50896C0.646166 8.33966 0.783011 8.20312 0.950874 8.20312H6.92644ZM23.3223 24.1919C23.5011 24.1919 23.6452 24.048 23.6452 23.8696V18.7124C23.6452 18.534 23.5011 18.3902 23.3223 18.3902H22.5249C22.3461 18.3902 22.202 18.534 22.202 18.7124V23.8696C22.202 24.048 22.3461 24.1919 22.5249 24.1919H23.3223ZM22.5268 10.6898C22.3479 10.6898 22.2038 10.8336 22.2038 11.012V15.3355C22.2038 15.5139 22.3479 15.6577 22.5268 15.6577H23.2967C23.4755 15.6577 23.6197 15.5139 23.6197 15.3355V11.012C23.6197 10.8336 23.4755 10.6898 23.2967 10.6898H22.5268ZM26.5555 18.0316C26.5682 18.0716 26.5792 18.1117 26.5883 18.1517V18.1553C26.6395 18.3826 26.6395 18.6218 26.6394 18.8564L26.6394 18.8799C26.6339 19.7337 26.6358 24.8436 26.6358 24.8436C26.6266 25.9122 25.7563 26.775 24.6834 26.775H19.7333C19.5545 26.775 19.3903 26.6312 19.3903 26.4528V18.4393C19.3903 18.2609 19.2461 18.1171 19.0673 18.1171C18.8885 18.1171 18.7444 17.9733 18.7444 17.7949V15.8616C18.7444 15.6832 18.8885 15.5394 19.0673 15.5394C19.2461 15.5394 19.3903 15.3956 19.3903 15.2172V8.52534C19.3903 8.34694 19.5362 8.20312 19.7132 8.20312H25.4589C25.9771 8.20312 26.3967 8.62182 26.4004 9.137V9.17705V9.35545V9.66128V10.0727V10.5678V11.1285V11.7347V12.3664V13.0036C26.3986 13.2111 26.3986 13.4168 26.3986 13.6243C26.3986 13.7217 26.3976 13.8196 26.3967 13.9174C26.3958 14.0153 26.3949 14.1131 26.3949 14.2105L26.3894 14.7402C26.3876 14.8932 26.3858 15.0443 26.3821 15.1954C26.3821 15.2271 26.3812 15.2594 26.3803 15.2916L26.3803 15.2918C26.3794 15.3241 26.3785 15.3565 26.3785 15.3883C26.3777 15.4223 26.3774 15.4566 26.3772 15.4912V15.4913V15.4913C26.3761 15.6234 26.3749 15.7583 26.3475 15.8853C26.3438 15.9035 26.3383 15.9235 26.3329 15.9417C26.2508 16.2202 26.0391 16.4806 25.78 16.6135C25.7399 16.6335 25.6979 16.6517 25.6559 16.6681C25.6432 16.6735 25.5392 16.7172 25.5319 16.7081C25.5921 16.7791 25.6541 16.8501 25.7162 16.9193C25.7885 16.9998 25.8638 17.077 25.9387 17.1538C26.1924 17.4138 26.4414 17.669 26.5555 18.0316ZM35.2825 15.5722H32.3541C32.2081 15.5722 32.0895 15.6905 32.0895 15.8362V17.8568C32.0895 18.0024 32.2081 18.119 32.3522 18.119H32.4708C32.6168 18.119 32.7336 18.2373 32.7336 18.3811V23.9316C32.7336 24.0772 32.615 24.1937 32.4708 24.1937H31.4162C31.2703 24.1937 31.1535 24.0754 31.1535 23.9316V10.9574C31.1535 10.8118 31.2721 10.6953 31.4162 10.6953H32.8631C33.0091 10.6953 33.1259 10.8136 33.1259 10.9574V12.4538C33.1259 12.5994 33.2445 12.716 33.3886 12.716H35.2625C35.4084 12.716 35.5453 12.5976 35.5453 12.4538V9.14429C35.5453 8.6273 35.1256 8.2086 34.6075 8.2086H29.7248C28.8618 8.2086 28.163 8.90582 28.163 9.76688V25.1403C28.163 26.0451 28.8983 26.7769 29.8033 26.7769H33.6805C34.7096 26.7769 35.5453 25.9049 35.5453 24.829V15.8343C35.5453 15.6887 35.4267 15.5722 35.2825 15.5722ZM17.2518 8.20312C17.4617 8.20312 17.6314 8.37242 17.6314 8.58177V24.3084L17.6314 24.3393C17.6315 24.8369 17.6316 25.3352 17.3777 25.7829C17.2756 25.9631 17.146 26.1251 16.9946 26.2635C16.9581 26.2963 16.9198 26.329 16.8796 26.36C16.8504 26.3818 16.8212 26.4037 16.792 26.4237C16.7803 26.4328 16.7675 26.4411 16.7552 26.449C16.7504 26.4521 16.7456 26.4552 16.741 26.4583C16.5403 26.5893 16.314 26.684 16.0713 26.7332C15.9436 26.7586 15.8122 26.7732 15.6772 26.7732H11.7379C11.6029 26.7732 11.4715 26.7586 11.3438 26.7332C11.1011 26.684 10.8749 26.5893 10.6742 26.4583C10.6627 26.4514 10.6519 26.4438 10.6414 26.4364C10.6352 26.432 10.6291 26.4277 10.6231 26.4237C10.5992 26.4083 10.5776 26.3919 10.5556 26.3752C10.5489 26.3701 10.5423 26.365 10.5355 26.36C10.4972 26.329 10.457 26.2963 10.4205 26.2635C10.2691 26.1251 10.1396 25.9631 10.0374 25.7829C9.78536 25.3353 9.78547 24.8353 9.78558 24.3394C9.78558 24.329 9.78558 24.3187 9.78558 24.3084V8.58177C9.78558 8.37242 9.95527 8.20312 10.1651 8.20312H12.3929C12.6028 8.20312 12.7725 8.37242 12.7725 8.58177V23.8005C12.7725 24.0153 12.9476 24.19 13.1629 24.19H14.254C14.4693 24.19 14.6445 24.0153 14.6445 23.8005V8.58177C14.6445 8.37242 14.8142 8.20312 15.024 8.20312H17.2518Z" fill="white"/>
</g>
<defs>
<clipPath id="clip0_447_666">
<rect width="35" height="35" fill="white"/>
</clipPath>
</defs>
</svg>
