<svg id="Layer_1" data-name="Layer 1" xmlns="http://www.w3.org/2000/svg" xmlns:xlink="http://www.w3.org/1999/xlink" width="22.819" height="42.952" viewBox="0 0 22.819 42.952">
  <defs>
    <linearGradient id="linear-gradient" y1="0.5" x2="1" y2="0.5" gradientUnits="objectBoundingBox">
      <stop offset="0" stop-color="#ffafbd"/>
      <stop offset="1" stop-color="#ffc3a0"/>
      <stop offset="1"/>
    </linearGradient>
  </defs>
  <path id="Контур_2" data-name="Контур 2" d="M22.468,4.567a7.9,7.9,0,0,1,.294,1.29c.013.108.029.227.047.358a1.5,1.5,0,0,1-.016.447,9.1,9.1,0,0,1-.6,3.6,11.281,11.281,0,0,1-2.015,3.41l-6.959,8.064a11.114,11.114,0,0,0-2.4,4.615q-.595,2.5-.944,5.05a.723.723,0,0,1-.01.2.648.648,0,0,0-.01.2L6.4,31.348a48.859,48.859,0,0,1,1.194-6.335,13.822,13.822,0,0,1,3.066-5.648l6.87-8.121a8.1,8.1,0,0,0,.689-.91c.193-.3.35-.562.474-.8a5.843,5.843,0,0,0,.545-1.7,5.237,5.237,0,0,0,.035-1.457,5.07,5.07,0,0,0-.128-.668,2.049,2.049,0,0,0-.269-.566A2.851,2.851,0,0,0,17.7,3.91a2.565,2.565,0,0,0-1.652-.277L7.628,4.882l-.268.043a.255.255,0,0,0-.178.108A3.478,3.478,0,0,0,5.563,6.241a3.636,3.636,0,0,0-.838,1.817L3.392,17.686,0,17.132,1.256,7.5a7.429,7.429,0,0,1,2.006-4.05A6.523,6.523,0,0,1,7.147,1.3L15.56.054a6.1,6.1,0,0,1,3.713.583A6,6,0,0,1,21.962,3.39,5.782,5.782,0,0,1,22.468,4.567ZM9.917,41.7a2.918,2.918,0,0,1-1.968,1.191,2.828,2.828,0,0,1-2.208-.567A2.907,2.907,0,0,1,4.587,40.31a3.093,3.093,0,0,1,.573-2.358,2.917,2.917,0,0,1,1.967-1.184,2.839,2.839,0,0,1,2.208.566,3.017,3.017,0,0,1,1.17,2.1A2.985,2.985,0,0,1,9.917,41.7Z" transform="translate(0 0.022)" fill="url(#linear-gradient)"/>
</svg>
