<svg width="35" height="35" viewBox="0 0 35 35" fill="none" xmlns="http://www.w3.org/2000/svg">
<g id="warzone">
<path id="Union" fill-rule="evenodd" clip-rule="evenodd" d="M26.2532 6.03342C26.7533 6.69219 27.1864 7.41806 27.5341 8.19883C28.1624 9.59568 28.4796 11.0901 28.4796 12.6517V15.8296C28.26 15.488 28.0343 15.1465 27.8086 14.811L27.7659 14.75C26.6496 13.0786 26.6496 10.1081 26.6496 8.9918C26.6496 8.77221 26.5337 8.57092 26.3386 8.46112C26.1495 8.35132 25.9116 8.35742 25.7286 8.46722C22.819 10.2118 19.2262 10.2118 17.5 10.2118C15.7738 10.2118 12.181 10.2118 9.27143 8.46722C9.08843 8.35742 8.85054 8.35132 8.66145 8.46112C8.46626 8.57092 8.35036 8.77221 8.35036 8.9918C8.35036 10.1081 8.35036 13.0786 7.23411 14.7561L7.19141 14.8171C6.96572 15.1526 6.74003 15.4941 6.52044 15.8357V12.6517C6.52044 11.0901 6.83762 9.59568 7.4659 8.19883C7.81358 7.41806 8.24057 6.69219 8.74075 6.03342C10.7842 3.32512 14.017 1.67209 17.5 1.67209C20.983 1.67209 24.2097 3.32512 26.2532 6.03342ZM16.2801 8.65631C16.2801 8.9918 16.5545 9.26629 16.89 9.26629H18.11C18.4455 9.26629 18.72 8.9918 18.72 8.65631C18.72 8.32083 18.4455 8.04634 18.11 8.04634H16.89C16.5545 8.04634 16.2801 8.32083 16.2801 8.65631ZM16.2801 5.94192C16.2801 6.28351 16.5545 6.5519 16.89 6.5519H18.11C18.4455 6.5519 18.72 6.27741 18.72 5.94192C18.72 5.60643 18.4455 5.33194 18.11 5.33194H16.89C16.5545 5.33194 16.2801 5.60033 16.2801 5.94192ZM18.11 3.8436C18.4333 3.8436 18.6956 3.59351 18.7139 3.27633C18.72 3.26413 18.72 3.24583 18.72 3.23363C18.72 2.89814 18.4455 2.62365 18.11 2.62365H16.89C16.5545 2.62365 16.2801 2.89814 16.2801 3.23363C16.2801 3.24583 16.2801 3.26413 16.2862 3.27633C16.3045 3.59351 16.5667 3.8436 16.89 3.8436H18.11ZM33.3594 16.3115V21.1913C33.3594 22.2039 32.5359 23.0213 31.5294 23.0213H29.8459C30.1814 22.088 30.3095 21.1913 30.3095 20.5813C30.3095 20.3923 30.2973 20.2032 30.2729 20.008C30.2241 19.5627 30.1143 19.0991 29.9374 18.6172C29.8703 18.422 29.791 18.2268 29.6995 18.0255V12.6517C29.6995 11.2121 29.4555 9.82137 28.9675 8.50383C30.8463 9.02841 31.5294 10.9376 31.5294 12.6517V15.0916C31.5294 15.1526 31.5355 15.2136 31.5599 15.2685C31.6331 15.5185 31.8649 15.7015 32.1394 15.7015H32.7494C32.7494 15.7015 32.8104 15.7015 32.8409 15.7137C33.1337 15.7564 33.3594 16.0065 33.3594 16.3115ZM28.5284 18.3976C28.0892 17.44 27.4609 16.4945 26.7899 15.488L26.7533 15.427C25.6981 13.8472 25.4846 11.5476 25.4419 10.0044C22.4591 11.4317 19.1652 11.4317 17.5 11.4317C15.8348 11.4317 12.5409 11.4317 9.55811 10.0044C9.51542 11.5476 9.30192 13.8533 8.24667 15.427L8.21007 15.488C7.53909 16.4945 6.91082 17.44 6.47163 18.3976C6.09345 19.2089 5.91046 19.9226 5.91046 20.5813C5.91046 21.2035 6.08735 22.2832 6.59363 23.2957C7.09991 24.3083 7.99657 25.4612 9.57031 25.4612C11.0465 25.4612 12.7666 26.37 13.1509 30.3898C13.1997 30.9143 13.2302 31.4877 13.2302 32.116C13.5657 32.4698 15.5603 32.7809 17.5 32.7809C19.4397 32.7809 21.4343 32.4637 21.7698 32.116C21.7698 32.0767 21.77 32.0377 21.7702 31.9988C21.7737 31.4162 21.8034 30.8816 21.8491 30.3898C22.2334 26.37 23.9536 25.4612 25.4297 25.4612C27.0034 25.4612 27.9123 24.2839 28.4003 23.3018C28.9127 22.2832 29.0896 21.2035 29.0896 20.5813C29.0896 19.9226 28.9066 19.2089 28.5284 18.3976ZM20.8427 30.1092L20.7512 29.4565C20.7024 29.1271 20.3913 28.8892 20.0619 28.938C19.7264 28.9868 19.4946 29.2918 19.5434 29.6273L19.6227 30.2068L19.7081 30.835C19.7455 31.1019 19.951 31.3034 20.202 31.3496C20.2378 31.3562 20.2747 31.3596 20.312 31.3596C20.3425 31.3596 20.373 31.3596 20.3974 31.3535C20.7329 31.3108 20.9647 30.9997 20.9159 30.6642L20.8427 30.1092ZM18.11 30.3288L18.11 29.731C18.11 29.3955 17.8355 29.121 17.5 29.121C17.1645 29.121 16.89 29.3955 16.89 29.731V30.9509C16.89 31.2655 17.1313 31.5264 17.4379 31.5577C17.4583 31.5598 17.479 31.5609 17.5 31.5609C17.8355 31.5609 18.11 31.2864 18.11 30.9509L18.11 30.3288ZM15.3773 30.2068L15.4566 29.6273C15.5054 29.2918 15.2736 28.9868 14.9381 28.938C14.6026 28.8892 14.2976 29.1271 14.2488 29.4565L14.1573 30.1092L14.0841 30.6642C14.0414 30.9578 14.2136 31.2327 14.482 31.3254C14.5204 31.3387 14.5607 31.3482 14.6026 31.3535C14.6331 31.3596 14.6575 31.3596 14.688 31.3596H14.688C14.9869 31.3596 15.2492 31.14 15.2919 30.835L15.3773 30.2068ZM15.7128 24.9061L16.9327 22.1856C17.0242 21.9538 17.2499 21.8013 17.5 21.8013C17.7501 21.8013 17.9758 21.9538 18.0673 22.1856L19.2872 24.9061C19.3116 24.9671 19.3238 25.0342 19.3238 25.0952C19.3299 25.1135 19.3299 25.1318 19.3299 25.1562C19.3299 25.1806 19.3299 25.1989 19.3238 25.2172C19.2933 25.3575 19.1713 25.4612 19.0249 25.4612H18.72C18.3357 25.266 17.9148 25.1745 17.5 25.1745C17.0852 25.1745 16.6643 25.266 16.2801 25.4612H15.9751C15.8287 25.4612 15.7067 25.3575 15.6762 25.2172C15.6701 25.1989 15.6701 25.1806 15.6701 25.1562C15.6701 25.1318 15.6701 25.1135 15.6762 25.0952C15.6762 25.0342 15.6884 24.9671 15.7128 24.9061ZM12.0102 22.4113C10.7903 22.4113 8.35036 21.8562 8.35036 19.0869C8.35036 16.3176 10.7903 16.3115 11.4002 16.3115C13.2302 16.3115 15.6701 17.4217 15.6701 20.191C15.6701 21.8562 13.2302 22.4113 12.0102 22.4113ZM22.9898 22.4113C21.7698 22.4113 19.3299 21.8562 19.3299 20.191C19.3299 17.4217 21.7698 16.3115 23.5998 16.3115C24.2097 16.3115 26.6496 16.3115 26.6496 19.0869C26.6496 21.8623 24.2097 22.4113 22.9898 22.4113ZM6.03245 8.49772C5.54447 9.82137 5.30048 11.2121 5.30048 12.6517V18.0255C4.8918 18.9405 4.69051 19.7823 4.69051 20.5813C4.69051 20.8924 4.7271 21.2828 4.8003 21.7159C4.8735 22.1246 4.98939 22.5699 5.15409 23.0212H3.47055C2.53119 23.0212 1.76262 22.3198 1.65892 21.4109C1.64672 21.3377 1.64062 21.2645 1.64062 21.1913V16.3115C1.64062 15.976 1.91511 15.7015 2.2506 15.7015H2.86058C3.19606 15.7015 3.47055 15.4331 3.47055 15.0916V12.6517C3.47055 10.9376 4.15373 9.0223 6.03245 8.49772Z" fill="white"/>
</g>
</svg>
