<svg width="65" height="49" viewBox="0 0 65 49" fill="none" xmlns="http://www.w3.org/2000/svg">
<path d="M57.1827 30.4127H61.7876V33.8148H56.1174L51.8218 49.0039L39.1069 33.9522L38.4196 34.8457C36.1172 38.076 33.1962 40.9283 29.7254 43.4369C26.2546 45.9455 20.6875 47.1826 13.0929 47.1826H0V43.7118H13.0929C18.3507 43.7118 22.6463 42.9558 26.0484 41.4094C29.4505 39.8629 32.6464 37.0107 35.6705 32.8182C36.0141 32.3715 36.289 32.0622 36.4609 31.856C36.6327 31.6842 36.7358 31.5124 36.8045 31.3749C36.8045 31.2718 36.7358 31.1687 36.5983 31.0312C36.4609 30.8938 36.289 30.6876 36.0485 30.3783H37.4231L57.4576 2.7148C57.87 2.16497 58.3168 1.68387 58.7635 1.30586C59.2446 0.927846 59.7257 0.652929 60.2412 0.446741C60.5848 0.309283 60.9285 0.171824 61.2378 0.103095C61.547 0.0343657 61.8563 0 62.1312 0C62.8529 0 63.4371 0.240552 63.9526 0.687292C64.468 1.13403 64.7086 1.85569 64.7086 2.88663C64.7086 3.19591 64.6742 3.50519 64.6399 3.84884C64.6055 4.19248 64.5024 4.53613 64.3993 4.9485L57.1827 30.4127ZM60.791 4.05503C60.6536 4.22685 60.4474 4.43303 60.1725 4.70795C55.6363 10.9967 51.9937 16.0139 49.2789 19.7597C47.8699 21.7184 46.4953 23.6429 45.1551 25.4985C43.8149 27.3542 42.6465 29.0037 41.6499 30.4127H53.5057L61.1347 3.95193L61.2034 3.64265C61.1003 3.74574 60.9628 3.8832 60.791 4.05503ZM43.4712 33.8148L50.2754 41.8905C50.4816 41.1688 50.6535 40.5159 50.8596 39.863C51.0315 39.21 51.2377 38.5227 51.4095 37.8354C51.6157 37.1825 51.7875 36.4952 51.9593 35.8423C52.1311 35.155 52.3373 34.5021 52.5091 33.8491H43.4712V33.8148Z" fill="white"/>
</svg>
