<svg width="337" height="57" viewBox="0 0 337 57" fill="none" xmlns="http://www.w3.org/2000/svg">
<path d="M104.228 30.6953H78.8972C80.2267 32.2632 81.1714 34.0052 81.6962 35.9214C82.221 37.8029 82.5009 39.7191 82.5009 41.6702C82.5009 42.9593 82.396 44.2136 82.186 45.4678C81.9761 46.7221 81.6962 47.9416 81.3463 49.1958C80.6816 51.3908 79.422 53.2025 77.5677 54.6658C75.7133 56.1292 73.754 56.8957 71.7248 57.0002C71.6898 57.0002 71.6198 57.0002 71.5848 57.0002C71.5498 57.0002 71.4799 57.0002 71.4449 57.0002C69.7655 57.0002 68.4009 56.4776 67.3863 55.4672C66.3717 54.4568 65.8818 53.2025 65.8818 51.7044C65.8818 51.356 65.9168 51.0075 65.9518 50.6591C65.9868 50.3107 66.0918 49.9972 66.1967 49.6139L71.5848 30.6953H67.2114L68.226 27.1764H72.5994L77.0778 11.707H80.6116L76.1332 27.1764H105.243L104.228 30.6953ZM78.5123 46.8963C78.6523 46.1647 78.7573 45.3982 78.8272 44.6317C78.8622 44.2833 78.9322 43.9 78.9322 43.5168C78.9672 43.1335 78.9672 42.7503 78.9672 42.4019C78.9672 40.4508 78.6523 38.6042 77.9875 36.7925C77.3578 35.0156 76.2382 33.4129 74.6987 32.0541L69.6255 49.6139C69.5905 49.823 69.5205 49.9972 69.5205 50.2062C69.4856 50.3804 69.4856 50.5895 69.4856 50.7637C69.4856 51.5302 69.7305 52.1921 70.2553 52.7148C70.7801 53.2374 71.4798 53.5161 72.4245 53.5161C73.754 53.5161 74.9086 53.0632 75.8883 52.1225C76.8679 51.2166 77.5327 50.1714 77.8826 49.0565C78.1625 48.3596 78.3724 47.628 78.5123 46.8963Z" fill="white"/>
<path d="M133.407 47.8369H111.855C109.651 47.8369 108.146 47.2794 107.307 46.1993C106.502 45.0844 106.082 43.7605 106.082 42.1926C106.082 41.6352 106.117 41.0429 106.222 40.4158C106.327 39.7886 106.432 39.1963 106.537 38.5692C106.677 37.9072 106.852 37.2452 107.027 36.6181C107.202 35.991 107.412 35.3638 107.622 34.7367C107.866 33.9702 108.111 33.2385 108.356 32.5069C108.601 31.7752 108.776 31.1829 108.951 30.6603H102.653L103.668 27.1414H109.966L113.115 16.1665H116.648L113.499 27.1414H119.902L118.888 30.6603H112.485L109.791 39.9977C109.756 40.2067 109.686 40.4158 109.686 40.6248C109.651 40.8338 109.651 41.0429 109.651 41.2519C109.651 42.123 109.931 42.8546 110.526 43.4818C111.12 44.1089 111.89 44.3876 112.87 44.3876H134.422L133.407 47.8369Z" fill="white"/>
<path d="M171.964 47.8365H136.731C135.192 47.8365 134.002 47.3836 133.128 46.4429C132.253 45.537 131.833 44.3873 131.903 43.0633C131.903 42.8194 131.938 42.5407 131.973 42.262C132.008 41.9833 132.078 41.7045 132.113 41.391C132.358 40.5199 132.778 39.6838 133.337 38.8824C133.897 38.0811 134.562 37.4191 135.332 36.8616C135.017 36.4436 134.772 36.0255 134.597 35.5725C134.422 35.1196 134.317 34.6318 134.317 34.1092C134.317 34.0047 134.317 33.9002 134.317 33.7957C134.317 33.6911 134.352 33.5518 134.387 33.4124C134.387 33.3079 134.387 33.2034 134.422 33.0988C134.457 32.9943 134.492 32.8898 134.527 32.7853C134.982 31.2523 135.962 29.9283 137.501 28.8482C139.005 27.7333 140.615 27.1759 142.329 27.1062C142.364 27.1062 142.434 27.1062 142.469 27.1062C142.504 27.1062 142.574 27.1062 142.609 27.1062H156.079L155.065 30.5554H141.595C141.455 30.5554 141.245 30.5554 141.07 30.5903C140.86 30.6251 140.65 30.66 140.44 30.6948C139.915 30.8342 139.425 31.1129 138.971 31.4613C138.516 31.8097 138.201 32.2627 138.061 32.7504C138.026 32.7853 137.991 32.8549 137.991 32.9246C137.991 32.9943 137.991 33.0988 137.991 33.2034C137.991 33.6563 138.236 34.0744 138.691 34.3879C139.145 34.7364 139.705 34.8757 140.37 34.8757H148.767L147.752 38.3946H139.355C138.551 38.3946 137.746 38.6734 137.011 39.2657C136.276 39.858 135.752 40.5199 135.507 41.2864C135.472 41.4258 135.402 41.5652 135.402 41.7045C135.367 41.8439 135.402 41.9484 135.437 42.0529C135.437 42.7149 135.647 43.2375 136.067 43.6556C136.486 44.0737 137.011 44.2828 137.676 44.2828H172.943L171.964 47.8365Z" fill="white"/>
<path d="M212.445 47.8366H190.577C188.373 47.8366 186.869 47.2792 186.029 46.1642C185.224 45.0493 184.805 43.6905 184.805 42.0879C184.805 41.5304 184.84 40.9381 184.909 40.311C184.979 39.6838 185.084 39.0915 185.259 38.4644C185.399 37.8024 185.574 37.1405 185.749 36.4785C185.924 35.8165 186.134 35.1894 186.344 34.6319C186.589 33.8306 186.834 33.0641 187.079 32.3673C187.324 31.6704 187.499 31.113 187.639 30.6252H178.472L174.693 43.6557C174.343 44.7706 173.643 45.7462 172.664 46.5823C171.649 47.3837 170.565 47.8018 169.375 47.8018L170.39 44.3525C170.425 44.3525 170.495 44.3525 170.53 44.3525C170.67 44.3177 170.809 44.2132 170.914 44.0738C171.019 43.9344 171.089 43.7951 171.159 43.6557L177.072 23.2041H180.536L179.451 27.1063H196.455L195.441 30.6252H191.137L188.443 39.9626C188.408 40.1716 188.338 40.3458 188.338 40.5549C188.303 40.7291 188.303 40.9381 188.303 41.1123C188.303 41.9833 188.618 42.7498 189.213 43.377C189.843 44.0041 190.612 44.3525 191.592 44.3525H213.459L212.445 47.8366Z" fill="white"/>
<path d="M236.236 47.8375H215.139C213.914 47.8375 212.935 47.4542 212.2 46.6877C211.465 45.9212 211.115 45.0154 211.115 43.9353C211.115 43.6914 211.15 43.4475 211.185 43.2036C211.22 42.9598 211.29 42.7507 211.325 42.5417L220.177 11.5681H223.711L214.824 42.5765C214.824 42.6113 214.789 42.7159 214.754 42.8204C214.754 42.8552 214.754 42.9249 214.754 42.9598C214.754 42.9946 214.754 43.0643 214.754 43.0991C214.754 43.4475 214.894 43.7611 215.139 44.005C215.384 44.2489 215.734 44.3882 216.153 44.3882H237.251L236.236 47.8375Z" fill="white"/>
<path d="M259.258 47.8367H238.16C236.936 47.8367 235.956 47.4535 235.221 46.7218C234.487 45.9901 234.137 45.0494 234.137 43.9345C234.137 43.7952 234.137 43.621 234.172 43.4816C234.207 43.3422 234.207 43.168 234.207 43.0287C234.242 42.9938 234.312 42.8893 234.312 42.7848C234.347 42.6803 234.347 42.6106 234.347 42.5409L239.035 26.0612H242.639L237.845 42.5757C237.845 42.6106 237.81 42.7151 237.775 42.8196C237.775 42.8545 237.775 42.9241 237.775 42.959C237.775 42.9938 237.775 43.0635 237.775 43.0984C237.775 43.4468 237.915 43.7603 238.16 44.0042C238.405 44.2481 238.755 44.3875 239.175 44.3875H260.272L259.258 47.8367ZM244.248 23.0997C243.583 23.7617 242.744 24.1101 241.799 24.1101C240.819 24.1101 240.015 23.7617 239.35 23.0997C238.685 22.4377 238.335 21.6364 238.335 20.7305C238.335 19.755 238.685 18.9536 239.35 18.2916C240.015 17.6297 240.854 17.2812 241.799 17.2812C242.779 17.2812 243.583 17.6297 244.248 18.2916C244.913 18.9536 245.263 19.7898 245.263 20.7305C245.228 21.6364 244.913 22.4377 244.248 23.0997Z" fill="white"/>
<path d="M297.114 30.6953H271.783C273.113 32.2632 274.057 34.0052 274.582 35.9214C275.107 37.8029 275.387 39.7191 275.387 41.6702C275.387 42.9593 275.282 44.2136 275.072 45.4678C274.862 46.7221 274.582 47.9416 274.232 49.1958C273.567 51.3908 272.308 53.2025 270.454 54.6658C268.599 56.1292 266.64 56.8957 264.611 57.0002C264.576 57.0002 264.506 57.0002 264.471 57.0002C264.436 57.0002 264.366 57.0002 264.331 57.0002C262.651 57.0002 261.287 56.4776 260.307 55.4672C259.293 54.4568 258.803 53.2025 258.803 51.7044C258.803 51.356 258.838 51.0076 258.873 50.6591C258.908 50.3107 259.013 49.9972 259.118 49.6139L264.506 30.6953H260.132L261.147 27.1764H265.52L269.999 11.707H273.532L269.054 27.1764H298.164L297.114 30.6953ZM271.398 46.8963C271.538 46.1647 271.643 45.3982 271.713 44.6317C271.748 44.2833 271.818 43.9 271.818 43.5168C271.853 43.1335 271.853 42.7503 271.853 42.4018C271.853 40.4508 271.538 38.6042 270.873 36.7925C270.244 35.0156 269.124 33.4129 267.585 32.0541L262.511 49.6139C262.476 49.823 262.406 49.9972 262.406 50.2062C262.371 50.3804 262.371 50.5895 262.371 50.7637C262.371 51.5302 262.616 52.1921 263.141 52.7148C263.666 53.2374 264.366 53.5161 265.31 53.5161C266.64 53.5161 267.795 53.0632 268.774 52.1225C269.754 51.2166 270.419 50.1714 270.768 49.0565C271.048 48.3596 271.258 47.628 271.398 46.8963Z" fill="white"/>
<path d="M336.055 47.8365H300.788C299.248 47.8365 298.059 47.3836 297.184 46.4429C296.31 45.537 295.89 44.3873 295.96 43.0633C295.96 42.8194 295.995 42.5407 296.03 42.262C296.065 41.9833 296.135 41.7045 296.17 41.391C296.414 40.5199 296.834 39.6838 297.394 38.8824C297.954 38.0811 298.619 37.4191 299.388 36.8616C299.074 36.4436 298.829 36.0255 298.654 35.5725C298.479 35.1196 298.374 34.6318 298.374 34.1092C298.374 34.0047 298.374 33.9002 298.374 33.7957C298.374 33.6911 298.409 33.5518 298.444 33.4124C298.444 33.3079 298.444 33.2034 298.479 33.0988C298.514 32.9943 298.549 32.8898 298.584 32.7853C299.039 31.2523 300.018 29.9283 301.558 28.8482C303.062 27.7333 304.672 27.1759 306.386 27.1062C306.421 27.1062 306.491 27.1062 306.526 27.1062C306.561 27.1062 306.631 27.1062 306.666 27.1062H320.136L319.121 30.5554H305.651C305.511 30.5554 305.301 30.5554 305.126 30.5903C304.916 30.6251 304.707 30.66 304.497 30.6948C303.972 30.8342 303.482 31.1129 303.027 31.4613C302.572 31.8097 302.257 32.2627 302.117 32.7504C302.082 32.7853 302.048 32.8549 302.048 32.9246C302.048 32.9943 302.048 33.0988 302.048 33.2034C302.048 33.6563 302.292 34.0744 302.747 34.3879C303.202 34.7364 303.762 34.8757 304.427 34.8757H312.824L311.809 38.3946H303.412C302.607 38.3946 301.803 38.6734 301.068 39.2657C300.333 39.858 299.808 40.5199 299.563 41.2864C299.528 41.4258 299.458 41.5652 299.458 41.7045C299.423 41.8439 299.458 41.9484 299.493 42.0529C299.493 42.7149 299.703 43.2375 300.123 43.6556C300.543 44.0737 301.068 44.2828 301.733 44.2828H337L336.055 47.8365Z" fill="white"/>
<path d="M58.2193 30.8342H62.9076V34.2834H57.1347L52.7612 49.6831L39.8158 34.4228L39.1161 35.3287C36.7719 38.6037 33.798 41.4955 30.2642 44.0389C26.7305 46.5823 21.0625 47.8365 13.3303 47.8365H0V44.3176H13.3303C18.6833 44.3176 23.0568 43.5511 26.5206 41.9833C29.9843 40.4154 33.2382 37.5236 36.3171 33.273C36.6669 32.8201 36.9468 32.5065 37.1218 32.2975C37.2967 32.1233 37.4017 31.9491 37.4717 31.8097C37.4717 31.7052 37.4017 31.6007 37.2617 31.4613C37.1218 31.322 36.9468 31.1129 36.7019 30.7993H38.1014L58.4992 2.75243C58.919 2.19497 59.3739 1.7072 59.8287 1.32395C60.3185 0.940705 60.8083 0.661978 61.3332 0.452933C61.683 0.313569 62.0329 0.174205 62.3478 0.104524C62.6627 0.0348419 62.9776 0 63.2575 0C63.9922 0 64.587 0.243886 65.1118 0.696818C65.6366 1.14975 65.8815 1.88141 65.8815 2.92663C65.8815 3.2402 65.8466 3.55377 65.8116 3.90218C65.7766 4.25059 65.6716 4.59899 65.5667 5.01709L58.2193 30.8342ZM61.893 4.11123C61.753 4.28543 61.5431 4.49447 61.2632 4.7732C56.6448 11.1491 52.9361 16.2359 50.1721 20.0335C48.7376 22.0194 47.3381 23.9705 45.9736 25.8519C44.6091 27.7333 43.4195 29.4057 42.4049 30.8342H54.4756L62.2428 4.0067L62.3128 3.69313C62.2079 3.79765 62.0679 3.93702 61.893 4.11123ZM44.2592 34.2834L51.1868 42.471C51.3967 41.7394 51.5716 41.0774 51.7816 40.4154C51.9565 39.7534 52.1664 39.0566 52.3414 38.3598C52.5513 37.6978 52.7262 37.001 52.9012 36.339C53.0761 35.6422 53.286 34.9802 53.461 34.3183H44.2592V34.2834Z" fill="white"/>
</svg>
