<svg width="32" height="32" viewBox="0 0 32 32" fill="none" xmlns="http://www.w3.org/2000/svg">
<g id="Frame">
<path id="Vector" fill-rule="evenodd" clip-rule="evenodd" d="M5.93966 10.9398C6.22091 10.6589 6.60216 10.5011 6.99966 10.5011C7.39716 10.5011 7.77841 10.6589 8.05966 10.9398L15.9997 18.8798L23.9397 10.9398C24.077 10.7924 24.2426 10.6742 24.4266 10.5923C24.6106 10.5103 24.8092 10.4662 25.0106 10.4626C25.212 10.4591 25.4121 10.4961 25.5989 10.5716C25.7856 10.647 25.9553 10.7593 26.0977 10.9017C26.2402 11.0442 26.3525 11.2138 26.4279 11.4006C26.5033 11.5874 26.5404 11.7875 26.5368 11.9889C26.5333 12.1903 26.4892 12.3889 26.4072 12.5729C26.3252 12.7569 26.207 12.9225 26.0597 13.0598L17.0597 22.0598C16.7784 22.3407 16.3972 22.4985 15.9997 22.4985C15.6022 22.4985 15.2209 22.3407 14.9397 22.0598L5.93966 13.0598C5.65876 12.7786 5.50098 12.3973 5.50098 11.9998C5.50098 11.6023 5.65876 11.2211 5.93966 10.9398Z" fill="white"/>
</g>
</svg>
