<svg width="32" height="32" viewBox="0 0 32 32" fill="none" xmlns="http://www.w3.org/2000/svg">
<g id="Frame">
<path id="Vector" fill-rule="evenodd" clip-rule="evenodd" d="M26.0603 21.0599C25.7791 21.3408 25.3978 21.4986 25.0003 21.4986C24.6028 21.4986 24.2216 21.3408 23.9403 21.0599L16.0003 13.1199L8.06034 21.0599C7.92302 21.2073 7.75742 21.3255 7.57342 21.4075C7.38942 21.4895 7.19079 21.5336 6.98939 21.5371C6.78798 21.5407 6.58792 21.5036 6.40115 21.4282C6.21437 21.3527 6.0447 21.2404 5.90227 21.098C5.75983 20.9556 5.64754 20.7859 5.5721 20.5991C5.49666 20.4124 5.45961 20.2123 5.46316 20.0109C5.46671 19.8095 5.5108 19.6109 5.59278 19.4269C5.67476 19.2429 5.79297 19.0773 5.94034 18.9399L14.9403 9.93994C15.2216 9.65904 15.6028 9.50126 16.0003 9.50126C16.3978 9.50126 16.7791 9.65904 17.0603 9.93994L26.0603 18.9399C26.3412 19.2212 26.499 19.6024 26.499 19.9999C26.499 20.3974 26.3412 20.7787 26.0603 21.0599Z" fill="#646B72"/>
</g>
</svg>
