<svg width="92" height="51" viewBox="0 0 92 51" fill="none" xmlns="http://www.w3.org/2000/svg">
<g filter="url(#filter0_b_4936_1536)">
<rect width="92" height="51" rx="17.37" fill="#E9E9E9" fill-opacity="0.05"/>
<path d="M18.9136 21.2849C17.3749 25.4996 18.5996 30.4754 22.324 33.6059C27.0482 37.5767 34.0052 37.0749 37.8631 32.4851C41.7209 27.8953 41.0186 20.9557 36.2944 16.9849C32.57 13.8544 27.4578 13.5037 23.5705 15.7445" stroke="#67D055" stroke-width="3.41592" stroke-linecap="round" stroke-linejoin="round"/>
<path d="M54.8812 33.6853C54.0937 33.6853 53.3372 33.554 52.6115 33.2916C51.9013 33.0291 51.2837 32.6354 50.7587 32.1104C50.2337 31.57 49.8709 30.9061 49.6702 30.1186H51.8935C52.1715 30.7054 52.6192 31.1454 53.2368 31.4388C53.8699 31.7167 54.4952 31.8556 55.1128 31.8556C55.9465 31.8556 56.6336 31.6858 57.174 31.3461C57.7298 30.991 58.1622 30.5124 58.471 29.9102C58.7952 29.308 59.0268 28.6364 59.1658 27.8953C59.3047 27.1387 59.3742 26.359 59.3742 25.5561C59.3742 25.4789 59.3742 25.394 59.3742 25.3014C59.3742 25.2087 59.3742 25.1238 59.3742 25.0466C59.0808 25.6488 58.6871 26.1351 58.193 26.5057C57.699 26.8608 57.1508 27.1233 56.5487 27.2931C55.9465 27.4475 55.3367 27.5247 54.7191 27.5247C53.7618 27.5247 52.8817 27.3317 52.0788 26.9457C51.2914 26.5443 50.6583 25.9653 50.1797 25.2087C49.7165 24.4367 49.4849 23.5026 49.4849 22.4064C49.4849 21.3101 49.7242 20.3529 50.2029 19.5345C50.6815 18.7162 51.3454 18.0832 52.1946 17.6354C53.0593 17.1722 54.0551 16.9406 55.1823 16.9406C56.3866 16.9406 57.3824 17.1954 58.1699 17.7049C58.9728 18.2144 59.5981 18.8938 60.0458 19.743C60.509 20.5922 60.8333 21.5263 61.0186 22.5453C61.2038 23.5489 61.2965 24.5525 61.2965 25.5561C61.2965 26.7141 61.1807 27.7872 60.9491 28.7754C60.7175 29.7481 60.3469 30.605 59.8374 31.3461C59.3279 32.0872 58.664 32.6662 57.8456 33.0831C57.0273 33.4846 56.0392 33.6853 54.8812 33.6853ZM55.0201 25.6719C55.6841 25.6719 56.2862 25.533 56.8266 25.2551C57.3824 24.9771 57.8225 24.5911 58.1467 24.0971C58.4864 23.603 58.6562 23.024 58.6562 22.3601C58.6562 21.6498 58.5018 21.0322 58.193 20.5073C57.8842 19.9669 57.4596 19.5423 56.9192 19.2335C56.3943 18.9247 55.7921 18.7703 55.1128 18.7703C54.418 18.7703 53.8004 18.9247 53.26 19.2335C52.735 19.5423 52.3181 19.9591 52.0093 20.4841C51.7005 21.0091 51.5461 21.5881 51.5461 22.2211C51.5461 23.3019 51.8549 24.1511 52.4725 24.7687C53.1056 25.3709 53.9548 25.6719 55.0201 25.6719ZM72.4623 33.5V30.2344H63.5689V28.729L71.5822 17.1259H74.4772V28.4048H76.3995V30.2344H74.4772V33.5H72.4623ZM66.0007 28.4048H72.4623V18.9555L66.0007 28.4048Z" fill="#D9D9D9"/>
</g>
<defs>
<filter id="filter0_b_4936_1536" x="-64" y="-64" width="220" height="179" filterUnits="userSpaceOnUse" color-interpolation-filters="sRGB">
<feFlood flood-opacity="0" result="BackgroundImageFix"/>
<feGaussianBlur in="BackgroundImageFix" stdDeviation="32"/>
<feComposite in2="SourceAlpha" operator="in" result="effect1_backgroundBlur_4936_1536"/>
<feBlend mode="normal" in="SourceGraphic" in2="effect1_backgroundBlur_4936_1536" result="shape"/>
</filter>
</defs>
</svg>
