<svg width="20" height="20" viewBox="0 0 20 20" fill="none" xmlns="http://www.w3.org/2000/svg">
<g id="Frame">
<path id="Vector" fill-rule="evenodd" clip-rule="evenodd" d="M14.3752 8.75024C14.3752 9.48892 14.2297 10.2204 13.9471 10.9028C13.6644 11.5853 13.25 12.2054 12.7277 12.7277C12.2054 13.25 11.5853 13.6644 10.9028 13.9471C10.2204 14.2297 9.48892 14.3752 8.75024 14.3752C8.01155 14.3752 7.2801 14.2297 6.59764 13.9471C5.91519 13.6644 5.29509 13.25 4.77276 12.7277C4.25043 12.2054 3.8361 11.5853 3.55342 10.9028C3.27073 10.2204 3.12524 9.48892 3.12524 8.75024C3.12524 7.25839 3.71787 5.82765 4.77276 4.77276C5.82765 3.71787 7.25839 3.12524 8.75024 3.12524C10.2421 3.12524 11.6728 3.71787 12.7277 4.77276C13.7826 5.82765 14.3752 7.25839 14.3752 8.75024ZM13.3502 14.6752C11.8432 15.8452 9.94695 16.3969 8.04749 16.2179C6.14803 16.039 4.38817 15.1428 3.12617 13.712C1.86418 12.2811 1.19493 10.4231 1.25466 8.51618C1.31439 6.60924 2.09861 4.79675 3.44768 3.44768C4.79675 2.09861 6.60924 1.31439 8.51618 1.25466C10.4231 1.19493 12.2811 1.86418 13.712 3.12617C15.1428 4.38817 16.039 6.14803 16.2179 8.04749C16.3969 9.94695 15.8452 11.8432 14.6752 13.3502L18.1627 16.8377C18.2548 16.9236 18.3287 17.0271 18.38 17.1421C18.4312 17.2571 18.4588 17.3812 18.461 17.5071C18.4632 17.633 18.44 17.758 18.3929 17.8747C18.3457 17.9915 18.2756 18.0975 18.1865 18.1865C18.0975 18.2756 17.9915 18.3457 17.8747 18.3929C17.758 18.44 17.633 18.4632 17.5071 18.461C17.3812 18.4588 17.2571 18.4312 17.1421 18.38C17.0271 18.3287 16.9236 18.2548 16.8377 18.1627L13.3502 14.6752Z" fill="white"/>
</g>
</svg>
