<svg width="30" height="30" viewBox="0 0 30 30" fill="none" xmlns="http://www.w3.org/2000/svg">
<g id="Ver">
<path id="Vector" opacity="0.5" d="M11.3885 1.80047C11.0233 2.11173 10.8407 2.26737 10.6456 2.39811C10.1984 2.69781 9.69626 2.90582 9.16815 3.01008C8.93777 3.05558 8.69855 3.07466 8.22012 3.11283C7.01805 3.20876 6.417 3.25673 5.91557 3.43385C4.75577 3.8435 3.8435 4.75577 3.43385 5.91557C3.25673 6.417 3.20877 7.01804 3.11285 8.22011C3.07467 8.69853 3.05558 8.93777 3.01008 9.16815C2.90582 9.69626 2.69781 10.1984 2.39811 10.6456C2.26737 10.8407 2.11172 11.0233 1.80042 11.3886C1.01826 12.3064 0.627154 12.7653 0.397834 13.2452C-0.132611 14.355 -0.132611 15.645 0.397834 16.7549C0.627169 17.2347 1.01825 17.6936 1.80041 18.6114C2.11164 18.9767 2.26739 19.1594 2.39811 19.3544C2.69781 19.8015 2.90582 20.3037 3.01008 20.8319C3.05558 21.0623 3.07466 21.3015 3.11283 21.7799C3.20876 22.9819 3.25673 23.583 3.43385 24.0844C3.8435 25.2442 4.75577 26.1565 5.91557 26.5662C6.41699 26.7432 7.01801 26.7912 8.22 26.8872C8.69843 26.9253 8.93777 26.9445 9.16815 26.9899C9.69626 27.0942 10.1984 27.3022 10.6456 27.6019C10.8407 27.7326 11.0233 27.8883 11.3886 28.1995C12.3065 28.9818 12.7653 29.3728 13.2452 29.6022C14.355 30.1326 15.645 30.1326 16.7549 29.6022C17.2347 29.3728 17.6936 28.9818 18.6114 28.1995C18.9767 27.8883 19.1594 27.7326 19.3544 27.6019C19.8015 27.3022 20.3037 27.0942 20.8319 26.9899C21.0623 26.9445 21.3015 26.9253 21.7799 26.8872C22.9818 26.7912 23.583 26.7432 24.0844 26.5662C25.2442 26.1565 26.1565 25.2442 26.5662 24.0844C26.7432 23.583 26.7912 22.982 26.8872 21.78C26.9253 21.3017 26.9445 21.0623 26.9899 20.8319C27.0942 20.3037 27.3022 19.8015 27.6019 19.3544C27.7326 19.1594 27.8883 18.9767 28.1995 18.6114C28.9818 17.6936 29.3728 17.2347 29.6022 16.7549C30.1326 15.645 30.1326 14.355 29.6022 13.2452C29.3728 12.7653 28.9818 12.3065 28.1995 11.3886C27.8883 11.0233 27.7326 10.8407 27.6019 10.6456C27.3022 10.1984 27.0942 9.69626 26.9899 9.16815C26.9445 8.93777 26.9253 8.69855 26.8872 8.22012C26.7912 7.01813 26.7432 6.41699 26.5662 5.91557C26.1565 4.75577 25.2442 3.8435 24.0844 3.43385C23.583 3.25673 22.9819 3.20877 21.7799 3.11285C21.3015 3.07467 21.0623 3.05558 20.8319 3.01008C20.3037 2.90582 19.8015 2.69781 19.3544 2.39811C19.1594 2.26737 18.9767 2.11172 18.6114 1.80041C17.6936 1.01825 17.2347 0.627169 16.7549 0.397834C15.645 -0.132611 14.355 -0.132611 13.2452 0.397834C12.7653 0.627154 12.3064 1.01831 11.3885 1.80047Z" fill="#79A1DD"/>
<path id="Vector_2" d="M21.5601 11.794C22.0368 11.3172 22.0368 10.5443 21.5601 10.0675C21.0833 9.59077 20.3103 9.59077 19.8336 10.0675L12.5582 17.343L10.166 14.9506C9.6893 14.4739 8.91633 14.4739 8.43959 14.9506C7.96285 15.4275 7.96285 16.2004 8.43959 16.6771L11.695 19.9326C12.1718 20.4093 12.9447 20.4093 13.4214 19.9326L21.5601 11.794Z" fill="white"/>
</g>
</svg>
