<svg width="21" height="21" viewBox="0 0 21 21" fill="none" xmlns="http://www.w3.org/2000/svg">
<path id="Vector" d="M10.4276 9.32349C10.7379 9.32349 11.0355 9.44676 11.255 9.66619C11.4744 9.88561 11.5977 10.1832 11.5977 10.4935C11.5977 10.8038 11.4744 11.1014 11.255 11.3209C11.0355 11.5403 10.7379 11.6636 10.4276 11.6636C10.1173 11.6636 9.81969 11.5403 9.60027 11.3209C9.38085 11.1014 9.25757 10.8038 9.25757 10.4935C9.25757 10.1832 9.38085 9.88561 9.60027 9.66619C9.81969 9.44676 10.1173 9.32349 10.4276 9.32349ZM1.32472 1.39064C2.99787 -0.282518 6.62499 0.466306 10.4276 2.95849C14.2302 0.466306 17.8574 -0.282518 19.5305 1.39064C21.2037 3.06379 20.4548 6.69091 17.9627 10.4935C20.4548 14.2962 21.2037 17.9233 19.5305 19.5964C17.8574 21.2696 14.2302 20.5208 10.4276 18.0286C6.62499 20.5208 2.99787 21.2696 1.32472 19.5964C-0.348436 17.9233 0.400388 14.2962 2.89257 10.4935C0.400388 6.69091 -0.348436 3.06379 1.32472 1.39064ZM14.5695 6.3516C15.2833 7.07702 15.9385 7.81414 16.5469 8.55127C18.1616 6.05909 18.7466 3.91792 17.8691 3.05209C17.0032 2.17456 14.8621 2.75958 12.3699 4.37423C13.107 4.98265 13.8441 5.63787 14.5695 6.3516ZM6.28568 14.6355C5.57196 13.91 4.91673 13.1729 4.30831 12.4358C2.69366 14.928 2.10864 17.0691 2.98617 17.935C3.852 18.8125 5.99317 18.2275 8.48535 16.6128C7.74823 16.0044 7.0111 15.3492 6.28568 14.6355ZM2.98617 3.05209C2.10864 3.91792 2.69366 6.05909 4.30831 8.55127C4.91673 7.81414 5.57196 7.07702 6.28568 6.3516C7.0111 5.63787 7.74823 4.98265 8.48535 4.37423C5.99317 2.75958 3.852 2.17456 2.98617 3.05209ZM7.94713 12.974C8.76616 13.793 9.60859 14.5419 10.4276 15.2088C11.2466 14.5419 12.0891 13.793 12.9081 12.974C13.7271 12.155 13.4759 11.3126 14.1429 10.4935C13.4759 9.6745 13.7271 8.83208 12.9081 8.01305C12.0891 7.19402 11.2466 6.4452 10.4276 5.77828C9.60859 6.4452 8.76616 7.19402 7.94713 8.01305C7.12811 8.83208 6.37928 9.6745 5.71236 10.4935C6.37928 11.3126 7.12811 12.155 7.94713 12.974ZM17.8691 17.935C18.7466 17.0691 18.1616 14.928 16.5469 12.4358C15.9385 13.1729 15.2833 13.91 14.5695 14.6355C13.8441 15.3492 13.107 16.0044 12.3699 16.6128C14.8621 18.2275 17.0032 18.8125 17.8691 17.935Z" fill="url(#paint0_linear_172_390)"/>
<defs>
<linearGradient id="paint0_linear_172_390" x1="10.4276" y1="0.49353" x2="10.4276" y2="20.4935" gradientUnits="userSpaceOnUse">
<stop stop-color="#EEBCFF"/>
<stop offset="0.4375" stop-color="#475C70"/>
<stop offset="1" stop-color="#5F8BFF"/>
</linearGradient>
</defs>
</svg>
