<svg width="18" height="19" viewBox="0 0 18 19" fill="none" xmlns="http://www.w3.org/2000/svg">
<path d="M8.76713 0.264648C9.31091 0.264648 9.7517 0.723244 9.7517 1.28894C9.7517 1.81423 9.37163 2.24717 8.88196 2.30634L8.76713 2.31323H3.84432C3.3394 2.31323 2.92325 2.70865 2.86638 3.21807L2.85975 3.33752V15.629C2.85975 16.1543 3.23984 16.5872 3.7295 16.6464L3.84432 16.6533H8.27485C8.81863 16.6533 9.25942 17.1119 9.25942 17.6776C9.25942 18.2029 8.87935 18.6358 8.38968 18.695L8.27485 18.7019H3.84432C2.2713 18.7019 0.985477 17.4227 0.895639 15.8096L0.890625 15.629V3.33752C0.890625 1.70103 2.12027 0.363328 3.67076 0.269865L3.84432 0.264648H8.76713ZM14.386 5.86185L17.1709 8.75898C17.5553 9.15897 17.5553 9.80755 17.1709 10.2075L14.386 13.1046C14.0016 13.5047 13.3782 13.5047 12.9937 13.1046C12.6092 12.7046 12.6092 12.0561 12.9937 11.6561L14.0978 10.5075H8.76713C8.22336 10.5075 7.78257 10.049 7.78257 9.48326C7.78257 8.91754 8.22336 8.45897 8.76713 8.45897H14.0978L12.9937 7.31041C12.6092 6.91041 12.6092 6.26186 12.9937 5.86185C13.3782 5.46183 14.0016 5.46183 14.386 5.86185Z" fill="#D53442"/>
</svg>
