<svg width="254" height="44" viewBox="0 0 254 44" fill="none" xmlns="http://www.w3.org/2000/svg">
<g id="Afterlife ">
<path id="Vector" d="M44.1537 23.2941H47.6757V25.8999H43.3389L40.0534 37.5338L30.3286 26.0052L29.8029 26.6895C28.0419 29.1637 25.8078 31.3483 23.1532 33.2698C20.4985 35.1912 16.2406 36.1388 10.432 36.1388H0.417969V33.4803H10.432C14.4533 33.4803 17.7388 32.9013 20.3408 31.7168C22.9429 30.5324 25.3873 28.3477 27.7002 25.1366C27.963 24.7944 28.1733 24.5575 28.3047 24.3996C28.4362 24.268 28.515 24.1364 28.5676 24.0311C28.5676 23.9521 28.515 23.8732 28.4099 23.7679C28.3047 23.6626 28.1733 23.5047 27.9893 23.2678H29.0407L44.3639 2.07936C44.6793 1.65822 45.021 1.28973 45.3627 1.0002C45.7307 0.710668 46.0986 0.5001 46.4929 0.342174C46.7557 0.23689 47.0186 0.131606 47.2551 0.0789639C47.4917 0.0263218 47.7282 0 47.9385 0C48.4904 0 48.9373 0.184247 49.3315 0.52642C49.7258 0.868594 49.9098 1.42133 49.9098 2.21096C49.9098 2.44785 49.8835 2.68474 49.8572 2.94795C49.8309 3.21116 49.7521 3.47437 49.6732 3.79023L44.1537 23.2941ZM46.9134 3.10588C46.8083 3.23749 46.6506 3.39541 46.4403 3.60598C42.9709 8.42273 40.1849 12.2656 38.1085 15.1346C37.0308 16.6349 35.9795 18.1089 34.9545 19.5302C33.9294 20.9515 33.0358 22.2149 32.2735 23.2941H41.3413L47.1763 3.02692L47.2288 2.79003C47.15 2.86899 47.0449 2.97428 46.9134 3.10588ZM33.6666 25.8999L38.8707 32.0853C39.0284 31.5326 39.1598 31.0325 39.3175 30.5324C39.4489 30.0323 39.6066 29.5059 39.738 28.9794C39.8958 28.4793 40.0272 27.9529 40.1586 27.4528C40.29 26.9264 40.4477 26.4263 40.5791 25.9262H33.6666V25.8999Z" fill="white"/>
<path id="Vector_2" d="M78.7168 23.1887H59.6876C60.6864 24.3732 61.396 25.6892 61.7903 27.1369C62.1845 28.5582 62.3948 30.0059 62.3948 31.4798C62.3948 32.4537 62.316 33.4013 62.1583 34.3488C62.0006 35.2964 61.7903 36.2176 61.5275 37.1652C61.0281 38.8234 60.0819 40.1921 58.6888 41.2976C57.2958 42.4031 55.8239 42.9821 54.2995 43.0611C54.2732 43.0611 54.2207 43.0611 54.1944 43.0611C54.1681 43.0611 54.1155 43.0611 54.0892 43.0611C52.8276 43.0611 51.8026 42.6663 51.0404 41.903C50.2781 41.1397 49.9102 40.1921 49.9102 39.0603C49.9102 38.7971 49.9364 38.5339 49.9627 38.2707C49.989 38.0075 50.0679 37.7706 50.1467 37.481L54.1944 23.1887H50.9089L51.6712 20.5303H54.9566L58.3209 8.84375H60.9755L57.6112 20.5303H79.4791L78.7168 23.1887ZM59.3985 35.428C59.5036 34.8753 59.5825 34.2962 59.635 33.7171C59.6613 33.4539 59.7139 33.1644 59.7139 32.8749C59.7402 32.5853 59.7402 32.2958 59.7402 32.0326C59.7402 30.5586 59.5036 29.1636 59.0042 27.7949C58.5311 26.4525 57.6901 25.2418 56.5336 24.2152L52.7225 37.481C52.6962 37.639 52.6436 37.7706 52.6436 37.9285C52.6174 38.0601 52.6174 38.218 52.6174 38.3496C52.6174 38.9287 52.8013 39.4288 53.1956 39.8236C53.5898 40.2184 54.1155 40.429 54.8252 40.429C55.8239 40.429 56.6913 40.0868 57.4272 39.3761C58.1632 38.6918 58.6626 37.9022 58.9254 37.0599C59.1357 36.5335 59.2934 35.9807 59.3985 35.428Z" fill="white"/>
<path id="Vector_3" d="M100.636 36.1387H84.4458C82.7899 36.1387 81.6597 35.7176 81.0289 34.9016C80.4244 34.0593 80.109 33.0591 80.109 31.8747C80.109 31.4536 80.1353 31.0061 80.2141 30.5323C80.293 30.0585 80.3718 29.6111 80.4507 29.1373C80.5558 28.6372 80.6872 28.1371 80.8186 27.6633C80.9501 27.1895 81.1078 26.7158 81.2655 26.242C81.4494 25.6629 81.6334 25.1102 81.8174 24.5574C82.0014 24.0047 82.1328 23.5572 82.2642 23.1624H77.5332L78.2954 20.504H83.0264L85.392 12.2129H88.0466L85.6811 20.504H90.491L89.7287 23.1624H84.9189L82.895 30.2165C82.8687 30.3744 82.8162 30.5323 82.8162 30.6902C82.7899 30.8482 82.7899 31.0061 82.7899 31.164C82.7899 31.822 83.0002 32.3748 83.447 32.8486C83.8938 33.3223 84.472 33.5329 85.208 33.5329H101.399L100.636 36.1387Z" fill="white"/>
<path id="Vector_4" d="M129.6 36.1385H103.133C101.976 36.1385 101.083 35.7964 100.426 35.0857C99.7685 34.4014 99.4531 33.5328 99.5056 32.5326C99.5056 32.3483 99.5319 32.1378 99.5582 31.9272C99.5845 31.7166 99.6371 31.506 99.6633 31.2692C99.8473 30.6111 100.163 29.9794 100.583 29.374C101.004 28.7687 101.503 28.2686 102.081 27.8474C101.845 27.5316 101.661 27.2157 101.529 26.8735C101.398 26.5314 101.319 26.1629 101.319 25.7681C101.319 25.6891 101.319 25.6101 101.319 25.5312C101.319 25.4522 101.345 25.3469 101.372 25.2416C101.372 25.1627 101.372 25.0837 101.398 25.0048C101.424 24.9258 101.451 24.8468 101.477 24.7679C101.819 23.6097 102.555 22.6095 103.711 21.7936C104.841 20.9513 106.05 20.5302 107.338 20.4775C107.364 20.4775 107.417 20.4775 107.443 20.4775C107.47 20.4775 107.522 20.4775 107.548 20.4775H117.668L116.905 23.0833H106.786C106.681 23.0833 106.523 23.0833 106.392 23.1096C106.234 23.136 106.077 23.1623 105.919 23.1886C105.525 23.2939 105.157 23.5045 104.815 23.7677C104.473 24.0309 104.237 24.373 104.132 24.7415C104.105 24.7679 104.079 24.8205 104.079 24.8731C104.079 24.9258 104.079 25.0048 104.079 25.0837C104.079 25.4259 104.263 25.7417 104.605 25.9786C104.946 26.2418 105.367 26.3471 105.866 26.3471H112.174L111.412 29.0055H105.104C104.499 29.0055 103.895 29.2161 103.343 29.6636C102.791 30.111 102.397 30.6111 102.213 31.1902C102.187 31.2955 102.134 31.4008 102.134 31.506C102.108 31.6113 102.134 31.6903 102.16 31.7693C102.16 32.2694 102.318 32.6642 102.633 32.98C102.949 33.2959 103.343 33.4538 103.842 33.4538H130.336L129.6 36.1385Z" fill="white"/>
<path id="Vector_5" d="M160.011 36.1383H143.584C141.928 36.1383 140.798 35.7171 140.167 34.8748C139.563 34.0326 139.247 33.0061 139.247 31.7953C139.247 31.3742 139.274 30.9267 139.326 30.4529C139.379 29.9791 139.458 29.5317 139.589 29.0579C139.694 28.5578 139.826 28.0577 139.957 27.5576C140.088 27.0575 140.246 26.5837 140.404 26.1626C140.588 25.5572 140.772 24.9781 140.956 24.4517C141.14 23.9253 141.271 23.5042 141.376 23.1357H134.49L131.651 32.9797C131.389 33.822 130.863 34.559 130.127 35.1907C129.365 35.7961 128.55 36.1119 127.656 36.1119L128.418 33.5062C128.445 33.5062 128.497 33.5062 128.524 33.5062C128.629 33.4798 128.734 33.4009 128.813 33.2956C128.892 33.1903 128.944 33.085 128.997 32.9797L133.439 17.5293H136.041L135.226 20.4773H148L147.237 23.1357H144.005L141.981 30.1897C141.954 30.3476 141.902 30.4792 141.902 30.6372C141.876 30.7688 141.876 30.9267 141.876 31.0583C141.876 31.7163 142.112 32.2954 142.559 32.7692C143.032 33.2429 143.61 33.5062 144.346 33.5062H160.773L160.011 36.1383Z" fill="white"/>
<path id="Vector_6" d="M179.29 36.4129H163.441C162.521 36.4129 161.785 36.1233 161.233 35.5443C160.681 34.9652 160.418 34.2809 160.418 33.4649C160.418 33.2807 160.444 33.0964 160.471 32.9122C160.497 32.7279 160.549 32.57 160.576 32.4121L167.225 9.0127H169.88L163.204 32.4384C163.204 32.4647 163.178 32.5437 163.151 32.6227C163.151 32.649 163.151 32.7016 163.151 32.7279C163.151 32.7543 163.151 32.8069 163.151 32.8332C163.151 33.0964 163.257 33.3333 163.441 33.5176C163.625 33.7018 163.887 33.8071 164.203 33.8071H180.052L179.29 36.4129Z" fill="white"/>
<path id="Vector_7" d="M195.178 36.1392H179.329C178.409 36.1392 177.673 35.8497 177.121 35.2969C176.569 34.7442 176.307 34.0335 176.307 33.1913C176.307 33.086 176.307 32.9544 176.333 32.8491C176.359 32.7438 176.359 32.6122 176.359 32.5069C176.385 32.4806 176.438 32.4016 176.438 32.3227C176.464 32.2437 176.464 32.1911 176.464 32.1384L179.986 19.6886H182.694L179.093 32.1647C179.093 32.1911 179.066 32.27 179.04 32.349C179.04 32.3753 179.04 32.4279 179.04 32.4543C179.04 32.4806 179.04 32.5332 179.04 32.5596C179.04 32.8228 179.145 33.0597 179.329 33.2439C179.513 33.4281 179.776 33.5334 180.091 33.5334H195.94L195.178 36.1392ZM183.903 17.4513C183.403 17.9514 182.772 18.2146 182.063 18.2146C181.327 18.2146 180.722 17.9514 180.223 17.4513C179.723 16.9512 179.461 16.3458 179.461 15.6614C179.461 14.9245 179.723 14.3191 180.223 13.819C180.722 13.3189 181.353 13.0557 182.063 13.0557C182.799 13.0557 183.403 13.3189 183.903 13.819C184.402 14.3191 184.665 14.9508 184.665 15.6614C184.638 16.3458 184.402 16.9512 183.903 17.4513Z" fill="white"/>
<path id="Vector_8" d="M223.618 23.1887H204.589C205.588 24.3732 206.297 25.6892 206.692 27.1369C207.086 28.5582 207.296 30.0059 207.296 31.4798C207.296 32.4537 207.217 33.4013 207.06 34.3488C206.902 35.2964 206.692 36.2176 206.429 37.1652C205.93 38.8234 204.983 40.1921 203.59 41.2976C202.197 42.4031 200.725 42.9821 199.201 43.0611C199.175 43.0611 199.122 43.0611 199.096 43.0611C199.07 43.0611 199.017 43.0611 198.991 43.0611C197.729 43.0611 196.704 42.6663 195.968 41.903C195.206 41.1397 194.838 40.1921 194.838 39.0603C194.838 38.7971 194.864 38.5339 194.89 38.2707C194.917 38.0075 194.996 37.7706 195.074 37.481L199.122 23.1887H195.837L196.599 20.5303H199.884L203.249 8.84375H205.903L202.539 20.5303H224.407L223.618 23.1887ZM204.3 35.428C204.405 34.8753 204.484 34.2962 204.536 33.7171C204.563 33.4539 204.615 33.1644 204.615 32.8749C204.642 32.5853 204.642 32.2958 204.642 32.0326C204.642 30.5586 204.405 29.1636 203.906 27.7949C203.433 26.4525 202.592 25.2418 201.435 24.2152L197.624 37.481C197.598 37.639 197.545 37.7706 197.545 37.9285C197.519 38.0601 197.519 38.218 197.519 38.3496C197.519 38.9287 197.703 39.4288 198.097 39.8236C198.491 40.2184 199.017 40.429 199.727 40.429C200.725 40.429 201.593 40.0868 202.329 39.3761C203.065 38.6918 203.564 37.9022 203.827 37.0599C204.037 36.5335 204.195 35.9807 204.3 35.428Z" fill="white"/>
<path id="Vector_9" d="M252.871 36.1385H226.377C225.22 36.1385 224.327 35.7964 223.67 35.0857C223.013 34.4014 222.697 33.5328 222.75 32.5326C222.75 32.3483 222.776 32.1378 222.802 31.9272C222.829 31.7166 222.881 31.506 222.907 31.2692C223.091 30.6111 223.407 29.9794 223.827 29.374C224.248 28.7687 224.747 28.2686 225.326 27.8474C225.089 27.5316 224.905 27.2157 224.774 26.8735C224.642 26.5314 224.563 26.1629 224.563 25.7681C224.563 25.6891 224.563 25.6101 224.563 25.5312C224.563 25.4522 224.59 25.3469 224.616 25.2416C224.616 25.1627 224.616 25.0837 224.642 25.0048C224.668 24.9258 224.695 24.8468 224.721 24.7679C225.063 23.6097 225.799 22.6095 226.955 21.7936C228.085 20.9513 229.294 20.5302 230.582 20.4775C230.609 20.4775 230.661 20.4775 230.687 20.4775C230.714 20.4775 230.766 20.4775 230.793 20.4775H240.912L240.149 23.0833H230.03C229.925 23.0833 229.767 23.0833 229.636 23.1096C229.478 23.136 229.321 23.1623 229.163 23.1886C228.769 23.2939 228.401 23.5045 228.059 23.7677C227.717 24.0309 227.481 24.373 227.376 24.7415C227.349 24.7679 227.323 24.8205 227.323 24.8731C227.323 24.9258 227.323 25.0048 227.323 25.0837C227.323 25.4259 227.507 25.7417 227.849 25.9786C228.19 26.2418 228.611 26.3471 229.11 26.3471H235.418L234.656 29.0055H228.348C227.744 29.0055 227.139 29.2161 226.587 29.6636C226.035 30.111 225.641 30.6111 225.457 31.1902C225.431 31.2955 225.378 31.4008 225.378 31.506C225.352 31.6113 225.378 31.6903 225.404 31.7693C225.404 32.2694 225.562 32.6642 225.878 32.98C226.193 33.2959 226.587 33.4538 227.087 33.4538H253.58L252.871 36.1385Z" fill="white"/>
</g>
</svg>
