<svg xmlns="http://www.w3.org/2000/svg" width="31.682" height="28.342" viewBox="0 0 31.682 28.342">
  <path id="_17566062941655795933" data-name="17566062941655795933" d="M17.944,23.5h10m-10,0-3,6m3-6,4-9a1.9,1.9,0,0,1,1-1c.2-.1-.2-.1,0,0a1.9,1.9,0,0,1,1,1l4,9m0,0,3,6m-29-24h9m0,0h5m-5,0v-2m5,2h3m-3,0a28.789,28.789,0,0,1-5,12m3,1c-.885-.4-2.138-.339-3-1m0,0a17.262,17.262,0,0,1-5-6m5,6a20.166,20.166,0,0,1-3,3,21.25,21.25,0,0,1-2,2,31.468,31.468,0,0,1-4,2" transform="translate(-0.604 -2.5)" fill="none" stroke="#fff" stroke-linecap="round" stroke-linejoin="round" stroke-width="2"/>
</svg>
