<svg xmlns="http://www.w3.org/2000/svg" width="25.124" height="25.164" viewBox="0 0 25.124 25.164">
  <path id="profile" d="M136.088,2012a5,5,0,1,1,5-5,4.984,4.984,0,0,1-5,5m5,0a7.639,7.639,0,0,0,3-7c-.5-3.29-3.68-5.616-7-6-4.581-.53-8,3.546-8,8,0,2.371,1.279,3.621,3,5a13.154,13.154,0,0,0-8,11c-.034.355-.24.735,0,1s.643,0,1,0c.642.005.936-.362,1-1a10.056,10.056,0,0,1,20,0c.064.638,1.358,1.005,2,1,.748,0,1.071-.258,1-1a13.149,13.149,0,0,0-8-11" transform="translate(-123.973 -1998.953)" fill="#fff" fill-rule="evenodd"/>
</svg>
