<svg width="26" height="28" viewBox="0 0 26 28" fill="none" xmlns="http://www.w3.org/2000/svg">
<g id="Group">
<path id="Vector" d="M3.36134 7.27725C5.05114 7.27725 6.44994 6.02203 6.68427 4.3961H25.4502C25.7157 4.3961 25.9304 4.18146 25.9304 3.91591C25.9304 3.65036 25.7157 3.43572 25.4502 3.43572H6.68427C6.44994 1.80979 5.05114 0.554565 3.36134 0.554565C1.5078 0.554565 0 2.06285 0 3.91591C0 5.76897 1.5078 7.27725 3.36134 7.27725ZM3.36134 1.51495C4.68523 1.51495 5.7623 2.59202 5.7623 3.91591C5.7623 5.2398 4.68523 6.31687 3.36134 6.31687C2.03745 6.31687 0.960384 5.2398 0.960384 3.91591C0.960384 2.59202 2.03745 1.51495 3.36134 1.51495Z" fill="#D9D9D9"/>
<path id="Vector_2" d="M22.569 20.7227C20.8792 20.7227 19.4804 21.9779 19.2461 23.6038H0.480192C0.215126 23.6038 0 23.8185 0 24.084C0 24.3495 0.215126 24.5642 0.480192 24.5642H19.2461C19.4804 26.1901 20.8792 27.4453 22.569 27.4453C24.4221 27.4453 25.9304 25.9371 25.9304 24.084C25.9304 22.2309 24.4221 20.7227 22.569 20.7227ZM22.569 26.485C21.2451 26.485 20.1681 25.4079 20.1681 24.084C20.1681 22.7601 21.2451 21.683 22.569 21.683C23.8929 21.683 24.97 22.7601 24.97 24.084C24.97 25.4079 23.8929 26.485 22.569 26.485Z" fill="#D9D9D9"/>
<path id="Vector_3" d="M25.4502 13.5198H16.5032C16.3131 11.7901 14.8442 10.4398 13.0646 10.4398C11.285 10.4398 9.81609 11.7906 9.62593 13.5198H0.480192C0.215126 13.5198 0 13.7344 0 14C0 14.2655 0.215126 14.4802 0.480192 14.4802H9.65618C9.93325 16.1128 11.3541 17.3613 13.0646 17.3613C14.775 17.3613 16.1954 16.1128 16.4725 14.4802H25.4502C25.7157 14.4802 25.9304 14.2655 25.9304 14C25.9304 13.7344 25.7157 13.5198 25.4502 13.5198ZM13.0646 16.4009C11.686 16.4009 10.5642 15.2792 10.5642 13.9006C10.5642 12.5219 11.686 11.4002 13.0646 11.4002C14.4432 11.4002 15.5649 12.5219 15.5649 13.9006C15.5649 15.2792 14.4432 16.4009 13.0646 16.4009Z" fill="#D9D9D9"/>
</g>
</svg>
