<svg width="21" height="21" viewBox="0 0 21 21" fill="none" xmlns="http://www.w3.org/2000/svg">
<path fill-rule="evenodd" clip-rule="evenodd" d="M15.7683 0.5C16.2416 0.5 16.6254 0.883759 16.6254 1.35714V17.0714L18.5111 14.5571C18.7951 14.1784 19.3324 14.1017 19.7111 14.3857C20.0899 14.6697 20.1666 15.2069 19.8826 15.5857L16.454 20.1571C16.2326 20.4523 15.8472 20.5726 15.4972 20.456C15.1472 20.3393 14.9111 20.0117 14.9111 19.6428V1.35714C14.9111 0.883759 15.2949 0.5 15.7683 0.5Z" fill="#D9D9D9"/>
<path d="M0.0541992 15.0717C0.0541992 14.5984 0.437958 14.2146 0.91134 14.2146H11.197C11.6704 14.2146 12.0542 14.5984 12.0542 15.0717C12.0542 15.5451 11.6704 15.9289 11.197 15.9289H0.91134C0.437958 15.9289 0.0541992 15.5451 0.0541992 15.0717Z" fill="#D9D9D9"/>
<path d="M2.33984 9.35726C2.33984 8.88389 2.7236 8.50012 3.19698 8.50012H11.197C11.6703 8.50012 12.0541 8.88389 12.0541 9.35726C12.0541 9.83063 11.6703 10.2144 11.197 10.2144H3.19698C2.7236 10.2144 2.33984 9.83063 2.33984 9.35726Z" fill="white" fill-opacity="0.5"/>
<path d="M4.62598 3.64266C4.62598 3.16928 5.00974 2.78552 5.48312 2.78552H11.1974C11.6708 2.78552 12.0545 3.16928 12.0545 3.64266C12.0545 4.11604 11.6708 4.4998 11.1974 4.4998H5.48312C5.00974 4.4998 4.62598 4.11604 4.62598 3.64266Z" fill="white" fill-opacity="0.1"/>
</svg>
