<svg width="35" height="35" viewBox="0 0 35 35" fill="none" xmlns="http://www.w3.org/2000/svg">
<g id="gra rp">
<path id="Vector" d="M10.1666 21.0508C9.99117 22.0865 9.82263 23.0798 9.65204 24.0882H3.28125C3.70602 21.0651 4.12667 18.0693 4.5528 15.0333C4.69873 15.0333 4.83233 15.0333 4.96592 15.0333C6.47315 15.0387 7.98039 15.0449 9.48693 15.0497C13.677 15.0626 17.8665 15.0756 22.0566 15.0845C22.3059 15.0845 22.5601 15.0688 22.8047 15.0217C23.4343 14.9014 23.8844 14.5318 23.9961 13.9012C24.1735 12.8963 24.3133 11.8817 24.4099 10.8658C24.4791 10.1369 24.0913 9.74542 23.3555 9.6812C23.2082 9.66822 23.0589 9.67368 22.9102 9.67368C17.1779 9.67368 11.4456 9.67369 5.71337 9.67437C5.58937 9.67437 5.46468 9.67437 5.30985 9.67437C5.55991 7.90014 5.80655 6.15255 6.0573 4.37627H6.41561C13.0844 4.37627 19.7525 4.37012 26.4214 4.3831C27.4298 4.38515 28.4191 4.55253 29.3111 5.08132C30.3422 5.69277 30.9013 6.61575 31.0931 7.7758C31.2856 8.93926 31.0869 10.0877 30.9335 11.2361C30.7437 12.6544 30.545 14.0713 30.3436 15.4883C30.1894 16.5711 29.9503 17.6273 29.4639 18.6214C28.8473 19.8818 27.8142 20.5418 26.4727 20.8144C25.1991 21.0726 23.9111 21.048 22.6231 21.0528C22.5094 21.0528 22.395 21.0562 22.2813 21.0637C22.2504 21.0658 22.2217 21.089 22.1429 21.1245C25.1046 24.2733 28.0499 27.4044 31.0506 30.5948C30.8732 30.6071 30.769 30.6201 30.6642 30.6201C28.1519 30.6215 25.6403 30.6188 23.1281 30.6256C22.8705 30.6263 22.6848 30.5566 22.5019 30.3632C19.684 27.3811 16.8559 24.4093 14.0395 21.4251C13.7853 21.156 13.5297 21.0323 13.1529 21.0439C12.2972 21.0706 11.4402 21.0514 10.5838 21.0508C10.4495 21.0508 10.3145 21.0508 10.1672 21.0508H10.1666Z" fill="white"/>
</g>
</svg>
