<svg width="35" height="35" viewBox="0 0 35 35" fill="none" xmlns="http://www.w3.org/2000/svg">
<g id="lol">
<path id="Vector" d="M6.43664 24.5622C5.47136 22.7424 4.92188 20.6579 4.92188 18.4427C4.92188 16.2275 5.47136 14.1451 6.43664 12.3263V24.5622ZM17.499 5.5907C16.4787 5.5907 15.4888 5.71843 14.5383 5.95241V7.97453C15.479 7.69864 16.4708 7.54844 17.499 7.54844C23.387 7.54844 28.1603 12.4101 28.1603 18.411C28.1603 21.1126 27.1902 23.5843 25.5879 25.4838L25.2842 26.5935L24.6098 29.0468C27.9117 26.7314 30.0781 22.8476 30.0781 18.4468C30.0762 11.3464 24.4447 5.59172 17.499 5.59172V5.5907ZM13.3981 3.82812H6.22137L7.57689 6.70343V28.8455L6.22137 31.7188H22.6921L24.1852 26.2788H13.3981V3.82812Z" fill="white"/>
</g>
</svg>
