<svg width="35" height="35" viewBox="0 0 35 35" fill="none" xmlns="http://www.w3.org/2000/svg">
<g id="valorant">
<path id="Vector" d="M2.88386 17.4744L12.1474 29.2304C12.2964 29.3807 12.4459 29.5314 12.7445 29.5314H21.5599C21.709 29.5314 21.8585 29.3807 21.709 29.2304L3.03294 5.56763C2.88386 5.41733 2.73438 5.41733 2.73438 5.71833V17.0231C2.73438 17.1734 2.73438 17.3241 2.88386 17.4744ZM31.7187 17.0231V5.71833C31.7187 5.41733 31.4202 5.41733 31.2711 5.56803L19.0223 21.086V21.2459C19.0223 21.3461 19.072 21.3962 19.1714 21.3962H28.1268C28.2854 21.3962 28.584 21.2459 28.7331 21.086L31.5689 17.4744C31.5689 17.3241 31.7184 17.1734 31.7184 17.0231" fill="white"/>
</g>
</svg>
