<svg xmlns="http://www.w3.org/2000/svg" xmlns:xlink="http://www.w3.org/1999/xlink" width="80" height="80" viewBox="0 0 80 80">
  <defs>
    <filter id="Прямоугольник_84" x="0" y="0" width="80" height="80" filterUnits="userSpaceOnUse">
      <feOffset dy="3" input="SourceAlpha"/>
      <feGaussianBlur stdDeviation="5" result="blur"/>
      <feFlood flood-color="#58b2ff" flood-opacity="0.729"/>
      <feComposite operator="in" in2="blur"/>
      <feComposite in="SourceGraphic"/>
    </filter>
    <filter id="Контур_22" x="9.5" y="12.679" width="61" height="52.642" filterUnits="userSpaceOnUse">
      <feOffset dy="2" input="SourceAlpha"/>
      <feGaussianBlur stdDeviation="4" result="blur-2"/>
      <feFlood flood-color="#5865f2" flood-opacity="0.502"/>
      <feComposite operator="in" in2="blur-2"/>
      <feComposite in="SourceGraphic"/>
    </filter>
  </defs>
  <g id="Сгруппировать_11" data-name="Сгруппировать 11" transform="translate(-919 -808)">
    <g transform="matrix(1, 0, 0, 1, 919, 808)" filter="url(#Прямоугольник_84)">
      <rect id="Прямоугольник_84-2" data-name="Прямоугольник 84" width="50" height="50" rx="12" transform="translate(15 12)" fill="rgba(255,255,255,0.1)"/>
    </g>
    <g id="discord" transform="translate(940.5 830.679)">
      <g transform="matrix(1, 0, 0, 1, -21.5, -22.68)" filter="url(#Контур_22)">
        <path id="Контур_22-2" data-name="Контур 22" d="M31.343,2.4A30.135,30.135,0,0,0,23.709,0a22.382,22.382,0,0,0-.978,2.03,28.028,28.028,0,0,0-8.46,0A21.7,21.7,0,0,0,13.282,0,30.035,30.035,0,0,0,5.643,2.4,32.014,32.014,0,0,0,.157,23.841a30.519,30.519,0,0,0,9.362,4.8,23.283,23.283,0,0,0,2.005-3.3A19.716,19.716,0,0,1,8.367,23.8c.265-.2.524-.4.774-.612a21.575,21.575,0,0,0,18.718,0c.253.211.512.416.774.612a19.666,19.666,0,0,1-3.163,1.54,23.181,23.181,0,0,0,2.005,3.3,30.458,30.458,0,0,0,9.368-4.8A31.982,31.982,0,0,0,31.343,2.4ZM12.354,19.525a3.591,3.591,0,0,1-3.326-3.784,3.573,3.573,0,0,1,3.326-3.787,3.55,3.55,0,0,1,3.326,3.787A3.568,3.568,0,0,1,12.354,19.525Zm12.293,0a3.591,3.591,0,0,1-3.326-3.784,3.573,3.573,0,0,1,3.326-3.787,3.55,3.55,0,0,1,3.326,3.787A3.57,3.57,0,0,1,24.646,19.525Z" transform="translate(21.5 22.68)" fill="#5865f2"/>
      </g>
    </g>
  </g>
</svg>
