<svg xmlns="http://www.w3.org/2000/svg" xmlns:xlink="http://www.w3.org/1999/xlink" width="80" height="80" viewBox="0 0 80 80">
  <defs>
    <filter id="Прямоугольник_83" x="0" y="0" width="80" height="80" filterUnits="userSpaceOnUse">
      <feOffset dy="3" input="SourceAlpha"/>
      <feGaussianBlur stdDeviation="5" result="blur"/>
      <feFlood flood-color="#58b2ff" flood-opacity="0.729"/>
      <feComposite operator="in" in2="blur"/>
      <feComposite in="SourceGraphic"/>
    </filter>
    <filter id="Контур_18" x="16" y="21.481" width="29.32" height="35.206" filterUnits="userSpaceOnUse">
      <feOffset dy="2" input="SourceAlpha"/>
      <feGaussianBlur stdDeviation="4" result="blur-2"/>
      <feFlood flood-color="#f8bb00" flood-opacity="0.502"/>
      <feComposite operator="in" in2="blur-2"/>
      <feComposite in="SourceGraphic"/>
    </filter>
    <filter id="Контур_19" x="28.264" y="24.758" width="35.737" height="35.6" filterUnits="userSpaceOnUse">
      <feOffset dy="2" input="SourceAlpha"/>
      <feGaussianBlur stdDeviation="4" result="blur-3"/>
      <feFlood flood-color="#508ef7" flood-opacity="0.502"/>
      <feComposite operator="in" in2="blur-3"/>
      <feComposite in="SourceGraphic"/>
    </filter>
    <filter id="Контур_20" x="17.43" y="29.503" width="42.082" height="33.497" filterUnits="userSpaceOnUse">
      <feOffset dy="2" input="SourceAlpha"/>
      <feGaussianBlur stdDeviation="4" result="blur-4"/>
      <feFlood flood-color="#28b446" flood-opacity="0.502"/>
      <feComposite operator="in" in2="blur-4"/>
      <feComposite in="SourceGraphic"/>
    </filter>
    <filter id="Контур_21" x="17.342" y="15" width="42.318" height="33.681" filterUnits="userSpaceOnUse">
      <feOffset dy="2" input="SourceAlpha"/>
      <feGaussianBlur stdDeviation="4" result="blur-5"/>
      <feFlood flood-color="#f14336" flood-opacity="0.502"/>
      <feComposite operator="in" in2="blur-5"/>
      <feComposite in="SourceGraphic"/>
    </filter>
  </defs>
  <g id="Сгруппировать_10" data-name="Сгруппировать 10" transform="translate(-841 -808)">
    <g transform="matrix(1, 0, 0, 1, 841, 808)" filter="url(#Прямоугольник_83)">
      <rect id="Прямоугольник_83-2" data-name="Прямоугольник 83" width="50" height="50" rx="12" transform="translate(15 12)" fill="rgba(255,255,255,0.1)"/>
    </g>
    <g id="Google" transform="translate(869 833)">
      <g transform="matrix(1, 0, 0, 1, -28, -25)" filter="url(#Контур_18)">
        <path id="Контур_18-2" data-name="Контур 18" d="M5.319,14.5l-.835,3.118-3.054.065A12.021,12.021,0,0,1,1.342,6.481l2.719.5,1.19,2.7A7.183,7.183,0,0,0,5.32,14.5Z" transform="translate(28 25)" fill="#f9bb01"/>
      </g>
      <g transform="matrix(1, 0, 0, 1, -28, -25)" filter="url(#Контур_19)">
        <path id="Контур_19-2" data-name="Контур 19" d="M23.79,9.758a12,12,0,0,1-4.278,11.6l-3.424-.175L15.6,18.158a7.152,7.152,0,0,0,3.077-3.652H12.264V9.758Z" transform="translate(28 25)" fill="#518ef8"/>
      </g>
      <g transform="matrix(1, 0, 0, 1, -28, -25)" filter="url(#Контур_20)">
        <path id="Контур_20-2" data-name="Контур 20" d="M19.512,21.357A12,12,0,0,1,1.43,17.687L5.319,14.5A7.135,7.135,0,0,0,15.6,18.157l3.909,3.2Z" transform="translate(28 25)" fill="#28b446"/>
      </g>
      <g transform="matrix(1, 0, 0, 1, -28, -25)" filter="url(#Контур_21)">
        <path id="Контур_21-2" data-name="Контур 21" d="M19.66,2.763,15.772,5.945A7.137,7.137,0,0,0,5.252,9.681l-3.91-3.2A12,12,0,0,1,19.66,2.763Z" transform="translate(28 25)" fill="#f14336"/>
      </g>
    </g>
  </g>
</svg>
