<svg width="27" height="26" viewBox="0 0 27 26" fill="none" xmlns="http://www.w3.org/2000/svg">
<g id="Heart">
<path id="Icon" d="M23.0766 4.99419C22.5233 4.44061 21.8663 4.00147 21.1433 3.70187C20.4202 3.40226 19.6452 3.24805 18.8625 3.24805C18.0798 3.24805 17.3047 3.40226 16.5817 3.70187C15.8586 4.00147 15.2016 4.44061 14.6483 4.99419L13.5 6.14252L12.3516 4.99419C11.234 3.87652 9.71809 3.24863 8.13747 3.24863C6.55685 3.24863 5.04097 3.87652 3.9233 4.99419C2.80563 6.11186 2.17773 7.62774 2.17773 9.20836C2.17773 10.789 2.80563 12.3049 3.9233 13.4225L13.5 22.9992L23.0766 13.4225C23.6302 12.8692 24.0693 12.2122 24.369 11.4892C24.6686 10.7661 24.8228 9.99105 24.8228 9.20836C24.8228 8.42566 24.6686 7.65064 24.369 6.92756C24.0693 6.20448 23.6302 5.54751 23.0766 4.99419Z" stroke="#D9D9D9" stroke-width="1.6" stroke-linecap="round" stroke-linejoin="round"/>
</g>
</svg>
