<svg width="16" height="16" viewBox="0 0 16 16" fill="none" xmlns="http://www.w3.org/2000/svg">
<g id="Frame">
<path id="Vector" fill-rule="evenodd" clip-rule="evenodd" d="M1.25 3.25C1.25 3.05109 1.32902 2.86032 1.46967 2.71967C1.61032 2.57902 1.80109 2.5 2 2.5H14C14.1989 2.5 14.3897 2.57902 14.5303 2.71967C14.671 2.86032 14.75 3.05109 14.75 3.25C14.75 3.44891 14.671 3.63968 14.5303 3.78033C14.3897 3.92098 14.1989 4 14 4H2C1.80109 4 1.61032 3.92098 1.46967 3.78033C1.32902 3.63968 1.25 3.44891 1.25 3.25ZM1.25 8C1.25 7.80109 1.32902 7.61032 1.46967 7.46967C1.61032 7.32902 1.80109 7.25 2 7.25H14C14.1989 7.25 14.3897 7.32902 14.5303 7.46967C14.671 7.61032 14.75 7.80109 14.75 8C14.75 8.19891 14.671 8.38968 14.5303 8.53033C14.3897 8.67098 14.1989 8.75 14 8.75H2C1.80109 8.75 1.61032 8.67098 1.46967 8.53033C1.32902 8.38968 1.25 8.19891 1.25 8ZM2 12C1.80109 12 1.61032 12.079 1.46967 12.2197C1.32902 12.3603 1.25 12.5511 1.25 12.75C1.25 12.9489 1.32902 13.1397 1.46967 13.2803C1.61032 13.421 1.80109 13.5 2 13.5H14C14.1989 13.5 14.3897 13.421 14.5303 13.2803C14.671 13.1397 14.75 12.9489 14.75 12.75C14.75 12.5511 14.671 12.3603 14.5303 12.2197C14.3897 12.079 14.1989 12 14 12H2Z" fill="white"/>
</g>
</svg>
