<svg width="25" height="25" viewBox="0 0 25 25" fill="none" xmlns="http://www.w3.org/2000/svg">
<g id="Steam logo icon 1" clip-path="url(#clip0_2995_1868)">
<g id="Group">
<path id="Vector" d="M12.5042 2.0835C7.03542 2.0835 2.55 6.30225 2.125 11.6637L7.70833 13.972C8.18125 13.6491 8.75208 13.4595 9.36771 13.4595C9.42292 13.4595 9.47604 13.4627 9.53125 13.4647L12.0146 9.86891V9.81787C12.0146 7.65121 13.775 5.89079 15.9417 5.89079C18.1073 5.89079 19.8687 7.65329 19.8687 9.81995C19.8687 11.9866 18.1062 13.7481 15.9417 13.7481H15.851L12.3125 16.2752C12.3125 16.32 12.3156 16.3668 12.3156 16.4137C12.3156 18.0408 11.001 19.3616 9.37292 19.3616C7.95417 19.3616 6.75521 18.3429 6.48229 16.9939L2.48438 15.3387C3.72187 19.7106 7.73646 22.9168 12.5052 22.9168C18.2573 22.9168 22.9198 18.2533 22.9198 12.5002C22.9198 6.74808 18.2562 2.0835 12.5042 2.0835ZM7.37292 17.3616C7.6 17.8325 7.99271 18.2283 8.5125 18.446C9.63854 18.9147 10.9375 18.3804 11.4052 17.2533C11.6344 16.7064 11.6344 16.1075 11.4094 15.5606C11.1854 15.0137 10.7583 14.5877 10.2146 14.3606C9.67292 14.1345 9.09479 14.1439 8.58437 14.3345L9.90625 14.8814C10.7365 15.2283 11.1292 16.1835 10.7812 17.0127C10.4375 17.8429 9.48229 18.2366 8.65208 17.8908L7.37292 17.3616ZM18.5604 9.81475C18.5604 8.37204 17.3854 7.19808 15.9427 7.19808C14.4979 7.19808 13.326 8.37204 13.326 9.81475C13.326 11.2606 14.4979 12.4325 15.9427 12.4325C17.3865 12.4325 18.5594 11.2606 18.5594 9.81475H18.5604ZM15.9479 7.84391C17.0312 7.84391 17.9146 8.72412 17.9146 9.81058C17.9146 10.897 17.0323 11.7772 15.9479 11.7772C14.8604 11.7772 13.9812 10.897 13.9812 9.81058C13.9812 8.72412 14.8615 7.84391 15.9479 7.84391Z" fill="#14203E"/>
</g>
</g>
<defs>
<clipPath id="clip0_2995_1868">
<rect width="25" height="25" fill="white"/>
</clipPath>
</defs>
</svg>
