<svg id="Компонент_6_1" data-name="Компонент 6 – 1" xmlns="http://www.w3.org/2000/svg" width="28.12" height="28" viewBox="0 0 28.12 28">
  <g id="Эллипс_3" data-name="Эллипс 3" transform="translate(5)" fill="none" stroke="#fff" stroke-width="2.5">
    <ellipse cx="7.5" cy="7" rx="7.5" ry="7" stroke="none"/>
    <ellipse cx="7.5" cy="7" rx="6.25" ry="5.75" fill="none"/>
  </g>
  <g id="Контур_5" data-name="Контур 5" transform="translate(0 10.688)" fill="none">
    <path d="M12.425,17.292C5.563,17.292,0,17.713,0,14.737S5.563,4.624,12.425,4.624,24.85,11.762,24.85,14.737,19.287,17.292,12.425,17.292Z" stroke="none"/>
    <path d="M 16.72987174987793 14.81240367889404 C 18.10400199890137 14.81240367889404 19.67318153381348 14.79318428039551 20.892822265625 14.65059375762939 C 21.59115791320801 14.56895160675049 22.02056121826172 14.46419143676758 22.27374267578125 14.38109970092773 C 22.18699073791504 14.09975528717041 22.01318359375 13.67191600799561 21.68704223632812 13.114013671875 C 21.14104270935059 12.18003368377686 20.34722137451172 11.19539356231689 19.45179176330566 10.34148406982422 C 18.19183158874512 9.139944076538086 15.60355186462402 7.124223709106445 12.42523193359375 7.124223709106445 C 9.246912002563477 7.124223709106445 6.658631801605225 9.139944076538086 5.398672103881836 10.34148406982422 C 4.503242015838623 11.19539356231689 3.709421873092651 12.18003368377686 3.163421869277954 13.114013671875 C 2.837149381637573 13.67214012145996 2.663333415985107 14.10009860992432 2.576618194580078 14.38120079040527 C 2.82977294921875 14.46427726745605 3.2591712474823 14.56902885437012 3.957541942596436 14.65065383911133 C 5.177021980285645 14.79318428039551 6.746322154998779 14.81240367889404 8.12059211730957 14.81240367889404 C 8.762042045593262 14.81240367889404 9.424331665039062 14.80768394470215 10.12551212310791 14.80269336700439 C 10.8685417175293 14.79740428924561 11.63686180114746 14.7919340133667 12.42523193359375 14.7919340133667 C 13.21382236480713 14.7919340133667 13.98205184936523 14.79740428924561 14.72500228881836 14.80269336700439 C 15.42608165740967 14.80768394470215 16.08828163146973 14.81240367889404 16.72987174987793 14.81240367889404 M 16.7298755645752 17.31240463256836 C 15.38838768005371 17.31240463256836 13.93891620635986 17.29193305969238 12.42523193359375 17.29193305969238 C 5.562970638275146 17.29192924499512 1.933593694047886e-06 17.71286201477051 1.933593694047886e-06 14.73722362518311 C 1.933593694047886e-06 11.76158428192139 5.562972068786621 4.624223709106445 12.42523193359375 4.624223709106445 C 19.2874927520752 4.624223709106445 24.85046195983887 11.76158428192139 24.85046195983887 14.73722362518311 C 24.85046195983887 17.05649375915527 21.46999740600586 17.31240463256836 16.7298755645752 17.31240463256836 Z" stroke="none" fill="#fff"/>
  </g>
  <path id="Контур_6" data-name="Контур 6" d="M0,0H7.848" transform="translate(20.273 13.733)" fill="none" stroke="#fff" stroke-linecap="round" stroke-width="2"/>
  <line id="Линия_6" data-name="Линия 6" x2="7.848" transform="translate(24.197 9.809) rotate(90)" fill="none" stroke="#fff" stroke-linecap="round" stroke-width="2"/>
</svg>
