<svg xmlns="http://www.w3.org/2000/svg" xmlns:xlink="http://www.w3.org/1999/xlink" width="80" height="80" viewBox="0 0 80 80">
  <defs>
    <filter id="Прямоугольник_52" x="3" y="2" width="74" height="74" filterUnits="userSpaceOnUse">
      <feOffset dy="2" input="SourceAlpha"/>
      <feGaussianBlur stdDeviation="4" result="blur"/>
      <feFlood flood-color="#fff" flood-opacity="0.451"/>
      <feComposite operator="in" in2="blur"/>
      <feComposite in="SourceGraphic"/>
    </filter>
    <filter id="Прямоугольник_52-2" x="0" y="0" width="80" height="80" filterUnits="userSpaceOnUse">
      <feOffset dy="3" input="SourceAlpha"/>
      <feGaussianBlur stdDeviation="5" result="blur-2"/>
      <feFlood flood-color="#58b2ff" flood-opacity="0.729"/>
      <feComposite operator="in" in2="blur-2"/>
      <feComposite in="SourceGraphic"/>
    </filter>
    <filter id="Прямоугольник_82" x="0" y="0" width="80" height="80" filterUnits="userSpaceOnUse">
      <feOffset dy="3" input="SourceAlpha"/>
      <feGaussianBlur stdDeviation="5" result="blur-3"/>
      <feFlood flood-color="#58b2ff" flood-opacity="0.729"/>
      <feComposite operator="in" in2="blur-3"/>
      <feComposite in="SourceGraphic"/>
    </filter>
  </defs>
  <g id="Lang" transform="translate(-1463.883 14.5)">
    <g transform="matrix(1, 0, 0, 1, 1463.88, -14.5)" filter="url(#Прямоугольник_52)">
      <rect id="Прямоугольник_52-3" data-name="Прямоугольник 52" width="50" height="50" rx="12" transform="translate(15 12)" fill="rgba(255,255,255,0.1)"/>
    </g>
    <path id="global-svgrepo-com" d="M17.672,2.672h-.036a15,15,0,0,0,0,30h.036a15,15,0,0,0,0-30Zm.6,8.977a22.074,22.074,0,0,0,4.628-.617,26.832,26.832,0,0,1,.772,6.04h-5.4Zm0-1.2V3.967c1.617.448,3.256,2.6,4.3,5.911A20.821,20.821,0,0,1,18.272,10.449Zm-1.2-6.5v6.5a20.77,20.77,0,0,1-4.335-.58c1.053-3.327,2.707-5.491,4.335-5.915Zm0,7.695v5.425H11.635a26.81,26.81,0,0,1,.773-6.047,22.111,22.111,0,0,0,4.664.622Zm-6.645,5.425H3.887A13.741,13.741,0,0,1,7.008,8.923a22,22,0,0,0,4.238,1.788,28.281,28.281,0,0,0-.819,6.361Zm0,1.2a28.279,28.279,0,0,0,.819,6.36,22.1,22.1,0,0,0-4.238,1.789,13.726,13.726,0,0,1-3.121-8.149Zm1.208,0h5.437V23.69a22.059,22.059,0,0,0-4.665.625A26.844,26.844,0,0,1,11.635,18.272Zm5.437,6.617v6.5c-1.63-.425-3.285-2.592-4.337-5.923A20.782,20.782,0,0,1,17.072,24.888Zm1.2,6.489V24.89a20.9,20.9,0,0,1,4.3.572C21.529,28.771,19.89,30.931,18.272,31.378Zm0-7.688V18.272h5.4a26.849,26.849,0,0,1-.77,6.034,22.02,22.02,0,0,0-4.629-.617Zm6.608-5.418h6.578a13.73,13.73,0,0,1-3.121,8.148,22.205,22.205,0,0,0-4.273-1.8,28.261,28.261,0,0,0,.817-6.348Zm0-1.2a28.3,28.3,0,0,0-.818-6.354,22.152,22.152,0,0,0,4.271-1.8,13.734,13.734,0,0,1,3.124,8.153H24.878ZM27.506,8a20.964,20.964,0,0,1-3.77,1.559,13.463,13.463,0,0,0-2.851-5.309A13.808,13.808,0,0,1,27.506,8ZM14.412,4.265a13.47,13.47,0,0,0-2.837,5.286A20.9,20.9,0,0,1,7.839,8a13.8,13.8,0,0,1,6.573-3.739ZM7.834,27.336a20.86,20.86,0,0,1,3.739-1.55,13.466,13.466,0,0,0,2.838,5.292,13.794,13.794,0,0,1-6.577-3.743ZM20.885,31.09a13.453,13.453,0,0,0,2.853-5.313,20.82,20.82,0,0,1,3.771,1.561,13.785,13.785,0,0,1-6.624,3.752Z" transform="translate(1486.211 5.828)" fill="#fff"/>
    <g id="Lang_" data-name="Lang&apos;">
      <g transform="matrix(1, 0, 0, 1, 1463.88, -14.5)" filter="url(#Прямоугольник_52-2)">
        <rect id="Прямоугольник_52-4" data-name="Прямоугольник 52" width="50" height="50" rx="12" transform="translate(15 12)" fill="rgba(255,255,255,0.1)"/>
      </g>
      <path id="global-svgrepo-com-2" data-name="global-svgrepo-com" d="M17.672,2.672h-.036a15,15,0,0,0,0,30h.036a15,15,0,0,0,0-30Zm.6,8.977a22.074,22.074,0,0,0,4.628-.617,26.832,26.832,0,0,1,.772,6.04h-5.4Zm0-1.2V3.967c1.617.448,3.256,2.6,4.3,5.911A20.821,20.821,0,0,1,18.272,10.449Zm-1.2-6.5v6.5a20.77,20.77,0,0,1-4.335-.58c1.053-3.327,2.707-5.491,4.335-5.915Zm0,7.695v5.425H11.635a26.81,26.81,0,0,1,.773-6.047,22.111,22.111,0,0,0,4.664.622Zm-6.645,5.425H3.887A13.741,13.741,0,0,1,7.008,8.923a22,22,0,0,0,4.238,1.788,28.281,28.281,0,0,0-.819,6.361Zm0,1.2a28.279,28.279,0,0,0,.819,6.36,22.1,22.1,0,0,0-4.238,1.789,13.726,13.726,0,0,1-3.121-8.149Zm1.208,0h5.437V23.69a22.059,22.059,0,0,0-4.665.625A26.844,26.844,0,0,1,11.635,18.272Zm5.437,6.617v6.5c-1.63-.425-3.285-2.592-4.337-5.923A20.782,20.782,0,0,1,17.072,24.888Zm1.2,6.489V24.89a20.9,20.9,0,0,1,4.3.572C21.529,28.771,19.89,30.931,18.272,31.378Zm0-7.688V18.272h5.4a26.849,26.849,0,0,1-.77,6.034,22.02,22.02,0,0,0-4.629-.617Zm6.608-5.418h6.578a13.73,13.73,0,0,1-3.121,8.148,22.205,22.205,0,0,0-4.273-1.8,28.261,28.261,0,0,0,.817-6.348Zm0-1.2a28.3,28.3,0,0,0-.818-6.354,22.152,22.152,0,0,0,4.271-1.8,13.734,13.734,0,0,1,3.124,8.153H24.878ZM27.506,8a20.964,20.964,0,0,1-3.77,1.559,13.463,13.463,0,0,0-2.851-5.309A13.808,13.808,0,0,1,27.506,8ZM14.412,4.265a13.47,13.47,0,0,0-2.837,5.286A20.9,20.9,0,0,1,7.839,8a13.8,13.8,0,0,1,6.573-3.739ZM7.834,27.336a20.86,20.86,0,0,1,3.739-1.55,13.466,13.466,0,0,0,2.838,5.292,13.794,13.794,0,0,1-6.577-3.743ZM20.885,31.09a13.453,13.453,0,0,0,2.853-5.313,20.82,20.82,0,0,1,3.771,1.561,13.785,13.785,0,0,1-6.624,3.752Z" transform="translate(1486.211 5.828)" fill="#fff"/>
    </g>
    <g transform="matrix(1, 0, 0, 1, 1463.88, -14.5)" filter="url(#Прямоугольник_82)">
      <rect id="Прямоугольник_82-2" data-name="Прямоугольник 82" width="50" height="50" rx="12" transform="translate(15 12)" fill="rgba(255,255,255,0.1)"/>
    </g>
  </g>
</svg>
